<svg viewBox=""><path d="M35.25 20.992a3.75 3.75 0 0 0-2.84-3.637A14.85 14.85 0 0 0 18 4.492 14.85 14.85 0 0 0 3.59 17.355a3.75 3.75 0 0 0 .548 7.37A14.7 14.7 0 0 0 18 35.241a14.7 14.7 0 0 0 13.861-10.518 3.75 3.75 0 0 0 3.389-3.732Z" fill="#D8F0E9"></path><path d="M18 4.492c.936.018 2.561.03 3.25.665 0 0 .391.455.485 1.386a3.061 3.061 0 0 1-2.738 3.352 2.446 2.446 0 0 1-2.68-2.19 1.904 1.904 0 0 1 .033-.628M14.25 18.102c0 .932-1.008 1.688-2.25 1.688s-2.25-.75-2.25-1.688M21.75 18.102c0 .932 1.008 1.688 2.25 1.688s2.25-.75 2.25-1.688M14.48 26.352a4.11 4.11 0 0 0 3.52 1.5 4.11 4.11 0 0 0 3.52-1.5" fill="#D8F0E9"></path><path d="M18 4.492a14.85 14.85 0 0 1 14.41 12.863 3.75 3.75 0 0 1-.548 7.37A14.7 14.7 0 0 1 18 35.241 14.7 14.7 0 0 1 4.138 24.724a3.75 3.75 0 0 1-.549-7.37A14.85 14.85 0 0 1 18 4.493Zm0 0c.936.018 2.561.03 3.25.665 0 0 .391.455.485 1.386a3.061 3.061 0 0 1-2.738 3.352 2.446 2.446 0 0 1-2.68-2.19 1.904 1.904 0 0 1 .033-.628m-2.1 11.025c0 .932-1.008 1.688-2.25 1.688s-2.25-.75-2.25-1.688m12 0c0 .932 1.008 1.688 2.25 1.688s2.25-.75 2.25-1.688m-11.77 8.25a4.11 4.11 0 0 0 3.52 1.5 4.11 4.11 0 0 0 3.52-1.5" stroke="#666" fill="#D8F0E9" stroke-linecap="round" stroke-linejoin="round"></path></svg>