<svg viewBox="0 0 20 18.38"><path d="M8.62,15.11V2.55S6.84.58.87.5a.35.35,0,0,0-.14,0A.32.32,0,0,0,.61.61.36.36,0,0,0,.5.87V12.69A.42.42,0,0,0,.6,13a.36.36,0,0,0,.26.11C6.84,13.14,8.62,15.11,8.62,15.11Z" fill="#d8f0e9" stroke="#666" stroke-linecap="round" stroke-linejoin="round"></path><path d="M8.62,15.11V2.55s1.77-2,7.74-2a.35.35,0,0,1,.14,0,.25.25,0,0,1,.12.08.36.36,0,0,1,.11.26V12.69a.42.42,0,0,1-.1.26.36.36,0,0,1-.26.11C10.39,13.14,8.62,15.11,8.62,15.11Z" fill="#d8f0e9" stroke="#666" stroke-linecap="round" stroke-linejoin="round"></path><path d="M2.69,4a.5.5,0,0,0-.07,1,14.86,14.86,0,0,1,3.67.74.52.52,0,0,0,.64-.32.51.51,0,0,0-.32-.63A15.86,15.86,0,0,0,2.69,4Zm0,4a.5.5,0,0,0-.07,1,14.84,14.84,0,0,1,3.67.73.51.51,0,0,0,.64-.31.52.52,0,0,0-.32-.64A15.85,15.85,0,0,0,2.69,8ZM15.07,4.42a.5.5,0,0,1-.46.53,14.86,14.86,0,0,0-3.67.74.5.5,0,0,1-.63-.32.5.5,0,0,1,.31-.63A15.86,15.86,0,0,1,14.54,4,.5.5,0,0,1,15.07,4.42ZM14.61,9a.5.5,0,0,0-.07-1,15.85,15.85,0,0,0-3.92.78.51.51,0,0,0-.31.64.49.49,0,0,0,.63.31A14.84,14.84,0,0,1,14.61,9Z" fill="#666" fill-rule="evenodd"></path></svg>