<svg viewBox=""><path d="M14.925 4.27h4.797v6.927h-4.364l-1.062.59-2.83 2.508H4.86l-.667-.905-.316-1.69c-.015-.438-2.87 0-2.24-1.887-.315-1.299 1.809-.853 1.799-1.299-.01-.417-1.486-.703-1.486-1.617C1.51 5.884 3.788 5.83 3.437 5.29c-.321-.492-.787-.627-.778-1.376.012-.912 1.54-1.029 1.612-1.1.22-.22 5.622-.092 8.296 0 .707.485 2.17 1.454 2.358 1.454Z" fill="#D8F0E9"></path><path d="M4.026 11.351v1.443a1.443 1.443 0 0 0 1.443 1.444h6.31l2.704-2.224a1.939 1.939 0 0 1 1.443-.721H19.9m0-7.157h-5.05l-2.165-1.443H4.748c-2.742 0-2.654 2.742-1.113 2.742h-.163a1.508 1.508 0 1 0 0 3.016h-.645a1.465 1.465 0 0 0-1.443 1.247 1.443 1.443 0 0 0 1.422 1.653h5.55" stroke="#666" stroke-linecap="round" fill="#D8F0E9" stroke-linejoin="round"></path><path d="M29.673 14.326v4.796h-6.928v-4.364l-.59-1.061-2.508-2.83V4.26l.905-.667 1.69-.316c.438-.014 0-2.87 1.887-2.24 1.299-.315.853 1.809 1.299 1.799.417-.01.703-1.486 1.617-1.486 1.013-.441 1.067 1.838 1.606 1.486.492-.32.627-.786 1.375-.777.913.011 1.03 1.54 1.101 1.612.22.22.092 5.622 0 8.295-.485.708-1.454 2.17-1.454 2.359Z" fill="#D8F0E9"></path><path d="M22.59 3.427h-1.442a1.443 1.443 0 0 0-1.444 1.443v6.309l2.224 2.704a1.938 1.938 0 0 1 .722 1.443V19.3m7.156 0v-5.05l1.443-2.165V4.148c0-2.742-2.742-2.653-2.742-1.112v-.163a1.508 1.508 0 0 0-3.016 0v-.645A1.465 1.465 0 0 0 24.244.785a1.443 1.443 0 0 0-1.653 1.42v5.551" stroke="#666" stroke-linecap="round" fill="#D8F0E9" stroke-linejoin="round"></path><path d="M19.812 29.326h-4.797v-6.928h4.364l1.062-.59 2.83-2.507h6.605l.668.904.315 1.69c.015.438 2.87 0 2.241 1.887.315 1.299-1.81.854-1.8 1.299.01.417 1.486.703 1.486 1.617.442 1.013-1.837 1.067-1.485 1.606.32.492.786.627.777 1.376-.011.912-1.54 1.03-1.612 1.1-.22.22-5.622.092-8.295 0-.708-.484-2.17-1.454-2.36-1.454Z" fill="#D8F0E9"></path><path d="M30.71 22.244V20.8a1.443 1.443 0 0 0-1.442-1.443h-6.31l-2.703 2.223a1.938 1.938 0 0 1-1.444.722h-3.974m0 7.156h5.05l2.165 1.443h7.937c2.742 0 2.654-2.742 1.113-2.742h.163a1.508 1.508 0 0 0 0-3.016h.645a1.465 1.465 0 0 0 1.443-1.246 1.443 1.443 0 0 0-1.421-1.654h-5.55" stroke="#666" stroke-linecap="round" fill="#D8F0E9" stroke-linejoin="round"></path><path d="M5.943 19.525V14.73h5.544v4.108l.59 1.061 3.892 2.831v6.605l-.905.667-1.69.316c-.438.014 0 2.87-1.887 2.24-1.299.315-.854-1.809-1.299-1.799-.417.01-.703 1.486-1.617 1.486-1.013.441-1.067-1.837-1.606-1.486-.492.321-.627.787-1.376.777-.912-.01-1.03-1.54-1.1-1.611-.22-.22-.092-5.622 0-8.296.484-.707 1.454-1.914 1.454-2.103Z" fill="#D8F0E9"></path><path d="M12.913 30.168h1.443a1.443 1.443 0 0 0 1.443-1.443v-6.309l-3.607-2.704a1.937 1.937 0 0 1-.722-1.443v-3.974m-5.772 0v5.05L4.255 21.51v7.937c0 2.742 2.742 2.654 2.742 1.112v.163a1.508 1.508 0 1 0 3.016 0v.646a1.465 1.465 0 0 0 1.246 1.443 1.443 1.443 0 0 0 1.654-1.422v-5.55" stroke="#666" stroke-linecap="round" fill="#D8F0E9" stroke-linejoin="round"></path></svg>