<svg viewBox=""><path d="M30.805 23.688V11.376a1.894 1.894 0 0 0-1.894-1.894H15.233l-.942 2.353c-1.095 1.361-1.33 2.021-3.592 2.955-2.348.664-2.624.468-2.624.468v8.43h22.73Z" fill="#D8F0E9"></path><path d="M33.484 29.548a1.895 1.895 0 0 1-1.731 2.664H7.129a1.895 1.895 0 0 1-1.732-2.664l2.678-5.86h22.73l2.68 5.86ZM8.13 15.258a7.256 7.256 0 0 0 7.254-7.253 7.254 7.254 0 1 0-7.254 7.253Z" fill="#D8F0E9"></path><path d="M8.13 5.118v2.901l1.741 1.74" fill="#D8F0E9"></path><path d="m14.291 11.835.39.313a.498.498 0 0 0 .074-.127l-.464-.186ZM10.7 14.79l.136.481a.477.477 0 0 0 .055-.019l-.19-.462Zm22.785 14.758.457-.203-.002-.005-.455.208Zm-1.731 2.664v-.5.5Zm-24.624 0v-.5.5Zm-1.732-2.664-.454-.207-.003.004.457.203Zm12.15-1.625a.5.5 0 0 0 0 1v-1Zm3.788 1a.5.5 0 0 0 0-1v1ZM8.63 5.118a.5.5 0 0 0-1 0h1Zm-.5 2.901h-.5a.5.5 0 0 0 .147.354l.353-.354Zm1.388 2.094a.5.5 0 0 0 .707-.707l-.707.707Zm-1.443 5.145.288-.408a.5.5 0 0 0-.788.408h.5Zm23.23 8.43V11.376h-1v12.312h1Zm0-12.312c0-.635-.252-1.244-.701-1.693l-.707.707c.261.261.408.616.408.986h1Zm-.701-1.693a2.394 2.394 0 0 0-1.693-.701v1c.37 0 .724.147.986.408l.707-.707ZM8.074 24.188h22.73v-1H8.075v1Zm24.953 5.563c.094.213.134.445.116.677l.997.079a2.393 2.393 0 0 0-.199-1.162l-.914.406Zm.116.677a1.394 1.394 0 0 1-.221.65l.838.544c.218-.334.348-.718.38-1.115l-.997-.08Zm-.221.65c-.127.194-.3.354-.504.465l.477.879c.35-.19.648-.465.865-.8l-.838-.545Zm-.504.465c-.204.11-.433.169-.665.169v1c.399 0 .791-.1 1.142-.29l-.477-.88Zm-.665.169H7.129v1h24.624v-1Zm-24.624 0c-.233 0-.461-.058-.665-.17l-.477.88c.35.19.743.29 1.142.29v-1Zm-.665-.17a1.395 1.395 0 0 1-.504-.465l-.839.545c.218.335.515.61.866.8l.477-.88Zm-.504-.465a1.395 1.395 0 0 1-.221-.65l-.997.08c.031.397.162.78.38 1.115l.838-.545Zm-.221-.65a1.394 1.394 0 0 1 .115-.676l-.914-.406c-.162.365-.23.764-.198 1.162l.997-.08Zm.113-.67 2.678-5.861-.91-.416-2.677 5.86.91.416Zm24.498-5.861 2.68 5.86.909-.416-2.68-5.86-.909.416Zm-12.803 5.027h3.788v-1h-3.788v1ZM8.13 14.758a6.753 6.753 0 0 1-6.753-6.753h-1a7.753 7.753 0 0 0 7.753 7.753v-1ZM1.377 8.005A6.754 6.754 0 0 1 8.13 1.25v-1A7.754 7.754 0 0 0 .377 8.005h1ZM8.13 1.25a6.753 6.753 0 0 1 6.754 6.754h1A7.753 7.753 0 0 0 8.13.25v1Zm-.5 3.867v2.901h1V5.118h-1Zm.147 3.255 1.74 1.74.708-.707-1.741-1.74-.707.707Zm6.125 3.149c-.585.726-.867 1.166-1.312 1.588-.42.395-.984.765-2.081 1.218l.381.924c1.165-.48 1.849-.908 2.386-1.416.511-.482.894-1.053 1.405-1.688l-.78-.627Zm-3.338 2.787c-1.162.328-1.785.436-2.104.466-.16.015-.228.009-.242.007-.006 0 .007 0 .031.009a.39.39 0 0 1 .112.057c.001 0 .002.002-.286.41-.289.408-.288.41-.286.41l.002.002.004.002c.003.002.006.005.01.006a.405.405 0 0 0 .054.031.833.833 0 0 0 .233.065c.11.014.258.016.461-.003.407-.039 1.096-.165 2.282-.5l-.272-.962Zm-2.99.949v8.43h1v-8.43h-1Zm7.31-7.253c0 .472-.049.932-.14 1.375l.979.203c.105-.51.16-1.038.16-1.578h-1Zm-.14 1.375a6.756 6.756 0 0 1-6.614 5.378v1a7.756 7.756 0 0 0 7.593-6.175l-.98-.203Zm14.167-.398H15.233v1h13.678v-1Zm-14.142.314-.942 2.353.928.372.942-2.354-.928-.371Z" fill="#666"></path></svg>