<svg viewBox="0 0 20 17.3"><path d="M13.68,12.09a5.67,5.67,0,0,0,1.67-1.94A5.8,5.8,0,0,0,16,7.67C16,4.32,12.72,1.6,8.7,1.6a8.44,8.44,0,0,0-2.35.33A4,4,0,0,0,4.52.53a.4.4,0,0,0-.24,0,.53.53,0,0,0-.22.08A.55.55,0,0,0,3.9.77a.59.59,0,0,0,0,.23V3.17A5.33,5.33,0,0,0,2,5.56H1a.5.5,0,0,0-.51.5v3a.47.47,0,0,0,.15.35A.48.48,0,0,0,1,9.6H2a5.93,5.93,0,0,0,2,2.72L3.43,14a1.23,1.23,0,0,0,0,1,1.55,1.55,0,0,0,.28.39,1.33,1.33,0,0,0,.41.25,1.15,1.15,0,0,0,.48.07,1.12,1.12,0,0,0,.47-.11,1.33,1.33,0,0,0,.38-.29,1.18,1.18,0,0,0,.24-.42l.56-1.5a8.52,8.52,0,0,0,5.26-.11l.59,1.61a1.27,1.27,0,0,0,.25.42,1.2,1.2,0,0,0,.38.29,1.31,1.31,0,0,0,.47.12,1.09,1.09,0,0,0,.47-.08,1,1,0,0,0,.41-.25,1.08,1.08,0,0,0,.28-.39,1.12,1.12,0,0,0,.11-.47,1.36,1.36,0,0,0-.09-.48Z" fill="#d8f0e9" stroke="#666" stroke-linecap="round" stroke-linejoin="round"></path><path d="M12.38,5.8A4.7,4.7,0,0,0,9.31,4.24" fill="none" stroke="#666" stroke-linecap="round" stroke-linejoin="round"></path><path d="M16,7.67c1.62,0,2.43-.81,2.43-2" fill="none" stroke="#666" stroke-linecap="round" stroke-linejoin="round"></path><path d="M5.42,5.38a1,1,0,0,1,1,.64,1,1,0,0,1,.06.6,1.08,1.08,0,0,1-.28.54,1.06,1.06,0,0,1-.54.29A1.12,1.12,0,0,1,5,7.39,1.06,1.06,0,0,1,4.55,7a1,1,0,0,1-.18-.58,1,1,0,0,1,.31-.74A1.05,1.05,0,0,1,5.42,5.38Z" fill="#666"></path></svg>