<svg xmlns="http://www.w3.org/2000/svg" viewBox="0 0 150 120" aria-hidden="true"><style></style><defs><linearGradient id="spot-indeed-welcome-6_svg__spot-indeed-welcome-6__paint0_linear" x1="74.491" x2="79.777" y1="40.378" y2="106.948" gradientUnits="userSpaceOnUse"><stop stop-color="#237EA3"></stop><stop offset="1" stop-color="#1D465C"></stop></linearGradient><linearGradient id="spot-indeed-welcome-6_svg__spot-indeed-welcome-6__paint1_linear" x1="74.491" x2="79.777" y1="40.378" y2="106.948" gradientUnits="userSpaceOnUse"><stop stop-color="#237EA3"></stop><stop offset="1" stop-color="#1D465C"></stop></linearGradient><linearGradient id="spot-indeed-welcome-6_svg__spot-indeed-welcome-6__paint2_linear" x1="74.493" x2="94.774" y1="94.856" y2="78.027" gradientUnits="userSpaceOnUse"><stop offset="0.062" stop-color="#75BDAA"></stop><stop offset="0.651" stop-color="#B9DAD0"></stop></linearGradient><linearGradient id="spot-indeed-welcome-6_svg__spot-indeed-welcome-6__paint3_linear" x1="98.845" x2="20.381" y1="91.779" y2="95.708" gradientUnits="userSpaceOnUse"><stop offset="0.152" stop-color="#F9F9F9"></stop><stop offset="1" stop-color="#C0C1C3"></stop></linearGradient><linearGradient id="spot-indeed-welcome-6_svg__spot-indeed-welcome-6__paint4_linear" x1="89.627" x2="142.3" y1="114.799" y2="55.172" gradientUnits="userSpaceOnUse"><stop offset="0.348" stop-color="#DF7838"></stop><stop offset="0.518" stop-color="#F39E78"></stop></linearGradient><linearGradient id="spot-indeed-welcome-6_svg__spot-indeed-welcome-6__paint5_linear" x1="57.53" x2="77.728" y1="89.569" y2="50.137" gradientUnits="userSpaceOnUse"><stop offset="0.264" stop-color="#DF7838"></stop><stop offset="0.624" stop-color="#F39E78"></stop></linearGradient><linearGradient id="spot-indeed-welcome-6_svg__spot-indeed-welcome-6__paint6_linear" x1="63.463" x2="86.567" y1="75.545" y2="44.773" gradientUnits="userSpaceOnUse"><stop offset="0.614" stop-color="#F39E78"></stop><stop offset="0.867" stop-color="#FFB286"></stop></linearGradient><linearGradient id="spot-indeed-welcome-6_svg__spot-indeed-welcome-6__paint7_linear" x1="114.665" x2="89.968" y1="86.266" y2="90.493" gradientUnits="userSpaceOnUse"><stop offset="0.152" stop-color="#F9F9F9"></stop><stop offset="1" stop-color="#C0C1C3"></stop></linearGradient><linearGradient id="spot-indeed-welcome-6_svg__spot-indeed-welcome-6__paint8_linear" x1="77.961" x2="69.393" y1="75.288" y2="64.09" gradientUnits="userSpaceOnUse"><stop offset="0.152" stop-color="#F9F9F9"></stop><stop offset="1" stop-color="#C0C1C3"></stop></linearGradient><linearGradient id="spot-indeed-welcome-6_svg__spot-indeed-welcome-6__paint9_linear" x1="64.931" x2="57.904" y1="73.827" y2="64.731" gradientUnits="userSpaceOnUse"><stop offset="0.152" stop-color="#F9F9F9"></stop><stop offset="1" stop-color="#C0C1C3"></stop></linearGradient><filter id="spot-indeed-welcome-6_svg__spot-indeed-welcome-6__filter0_di" width="82.25" height="56.186" x="33.866" y="42.789" color-interpolation-filters="sRGB" filterUnits="userSpaceOnUse"><feFlood flood-opacity="0" result="BackgroundImageFix"></feFlood><feColorMatrix in="SourceAlpha" values="0 0 0 0 0 0 0 0 0 0 0 0 0 0 0 0 0 0 127 0"></feColorMatrix><feOffset dx="0.5" dy="0.5"></feOffset><feGaussianBlur stdDeviation="0.25"></feGaussianBlur><feColorMatrix values="0 0 0 0 0 0 0 0 0 0 0 0 0 0 0 0 0 0 0.3 0"></feColorMatrix><feBlend in2="BackgroundImageFix" result="effect1_dropShadow"></feBlend><feBlend in="SourceGraphic" in2="effect1_dropShadow" result="shape"></feBlend><feColorMatrix in="SourceAlpha" result="hardAlpha" values="0 0 0 0 0 0 0 0 0 0 0 0 0 0 0 0 0 0 127 0"></feColorMatrix><feOffset dx="1" dy="1"></feOffset><feGaussianBlur stdDeviation="0.5"></feGaussianBlur><feComposite in2="hardAlpha" k2="-1" k3="1" operator="arithmetic"></feComposite><feColorMatrix values="0 0 0 0 0 0 0 0 0 0 0 0 0 0 0 0 0 0 0.3 0"></feColorMatrix><feBlend in2="shape" result="effect2_innerShadow"></feBlend></filter><filter id="spot-indeed-welcome-6_svg__spot-indeed-welcome-6__filter1_d" width="70.292" height="27.923" x="34.555" y="66.746" color-interpolation-filters="sRGB" filterUnits="userSpaceOnUse"><feFlood flood-opacity="0" result="BackgroundImageFix"></feFlood><feColorMatrix in="SourceAlpha" values="0 0 0 0 0 0 0 0 0 0 0 0 0 0 0 0 0 0 127 0"></feColorMatrix><feOffset dx="1" dy="1"></feOffset><feGaussianBlur stdDeviation="0.5"></feGaussianBlur><feColorMatrix values="0 0 0 0 0 0 0 0 0 0 0 0 0 0 0 0 0 0 0.3 0"></feColorMatrix><feBlend in2="BackgroundImageFix" result="effect1_dropShadow"></feBlend><feBlend in="SourceGraphic" in2="effect1_dropShadow" result="shape"></feBlend></filter><filter id="spot-indeed-welcome-6_svg__spot-indeed-welcome-6__filter2_d" width="21.974" height="40.244" x="94.004" y="54.422" color-interpolation-filters="sRGB" filterUnits="userSpaceOnUse"><feFlood flood-opacity="0" result="BackgroundImageFix"></feFlood><feColorMatrix in="SourceAlpha" values="0 0 0 0 0 0 0 0 0 0 0 0 0 0 0 0 0 0 127 0"></feColorMatrix><feOffset dx="1" dy="1"></feOffset><feGaussianBlur stdDeviation="0.5"></feGaussianBlur><feColorMatrix values="0 0 0 0 0 0 0 0 0 0 0 0 0 0 0 0 0 0 0.3 0"></feColorMatrix><feBlend in2="BackgroundImageFix" result="effect1_dropShadow"></feBlend><feBlend in="SourceGraphic" in2="effect1_dropShadow" result="shape"></feBlend></filter><filter id="spot-indeed-welcome-6_svg__spot-indeed-welcome-6__filter3_d" width="24.707" height="33.394" x="57.311" y="38.563" color-interpolation-filters="sRGB" filterUnits="userSpaceOnUse"><feFlood flood-opacity="0" result="BackgroundImageFix"></feFlood><feColorMatrix in="SourceAlpha" values="0 0 0 0 0 0 0 0 0 0 0 0 0 0 0 0 0 0 127 0"></feColorMatrix><feOffset dx="1" dy="1"></feOffset><feGaussianBlur stdDeviation="0.5"></feGaussianBlur><feColorMatrix values="0 0 0 0 0 0 0 0 0 0 0 0 0 0 0 0 0 0 0.3 0"></feColorMatrix><feBlend in2="BackgroundImageFix" result="effect1_dropShadow"></feBlend><feBlend in="SourceGraphic" in2="effect1_dropShadow" result="shape"></feBlend></filter><filter id="spot-indeed-welcome-6_svg__spot-indeed-welcome-6__filter4_di" width="96.36" height="5.821" x="26.811" y="92.7" color-interpolation-filters="sRGB" filterUnits="userSpaceOnUse"><feFlood flood-opacity="0" result="BackgroundImageFix"></feFlood><feColorMatrix in="SourceAlpha" values="0 0 0 0 0 0 0 0 0 0 0 0 0 0 0 0 0 0 127 0"></feColorMatrix><feOffset dx="0.5" dy="0.5"></feOffset><feGaussianBlur stdDeviation="0.25"></feGaussianBlur><feColorMatrix values="0 0 0 0 0 0 0 0 0 0 0 0 0 0 0 0 0 0 0.3 0"></feColorMatrix><feBlend in2="BackgroundImageFix" result="effect1_dropShadow"></feBlend><feBlend in="SourceGraphic" in2="effect1_dropShadow" result="shape"></feBlend><feColorMatrix in="SourceAlpha" result="hardAlpha" values="0 0 0 0 0 0 0 0 0 0 0 0 0 0 0 0 0 0 127 0"></feColorMatrix><feOffset dx="0.5" dy="0.5"></feOffset><feGaussianBlur stdDeviation="0.25"></feGaussianBlur><feComposite in2="hardAlpha" k2="-1" k3="1" operator="arithmetic"></feComposite><feColorMatrix values="0 0 0 0 0 0 0 0 0 0 0 0 0 0 0 0 0 0 0.3 0"></feColorMatrix><feBlend in2="shape" result="effect2_innerShadow"></feBlend></filter><filter id="spot-indeed-welcome-6_svg__spot-indeed-welcome-6__filter5_d" width="116.555" height="96.693" x="16.519" y="12" color-interpolation-filters="sRGB" filterUnits="userSpaceOnUse"><feFlood flood-opacity="0" result="BackgroundImageFix"></feFlood><feColorMatrix in="SourceAlpha" values="0 0 0 0 0 0 0 0 0 0 0 0 0 0 0 0 0 0 127 0"></feColorMatrix><feOffset dy="0.481"></feOffset><feGaussianBlur stdDeviation="0.241"></feGaussianBlur><feColorMatrix values="0 0 0 0 0 0 0 0 0 0 0 0 0 0 0 0 0 0 0.25 0"></feColorMatrix><feBlend in2="BackgroundImageFix" result="effect1_dropShadow"></feBlend><feBlend in="SourceGraphic" in2="effect1_dropShadow" result="shape"></feBlend></filter><clipPath id="spot-indeed-welcome-6_svg__spot-indeed-welcome-6__svgClip"><path xmlns="http://www.w3.org/2000/svg" fill="#767676" d="M30.323 55.888l3.544-1.366v-7.617a4.115 4.115 0 014.115-4.116h21.209c1.955-3.792 5.754-6.31 10.044-6.179 2.111.065 4.266.678 6.08 1.935l38.532-14.854 16.305 73.823h-10.881a3.147 3.147 0 01-.19.006H29.903a2.99 2.99 0 01-.19-.006H18.832l11.491-41.626zm3.661 42.087v-.453.453z"></path></clipPath><pattern id="spot-indeed-welcome-6_svg__spot-indeed-welcome-6__texture" width="38" height="32" x="0" y="0" patternTransform="scale(.3)" patternUnits="userSpaceOnUse"><path d="M10 0h1v1h-1V0zm8 0h1v1h-1V0zm15 0h1v1h-1V0zm10 1h1v1h-1V1zm27 0h1v1h-1V1zM6 1h1v1H6V1zm23 0h1v1h-1V1zm2 0h1v1h-1V1zm25 0h1v1h-1V1zm19 0h1v1h-1V1zM3 1h1v1H3V1zm4 1h1v1H7V2zm16 0h1v1h-1V2zm14 0h1v1h-1V2zm8 0h1v1h-1V2zm8 0h1v1h-1V2zm5 0h1v1h-1V2zm10 0h1v1h-1V2zM1 3h1v1H1V3zm3 0h1v1H4V3zm4 0h2v1H8V3zm6 0h1v1h-1V3zm2 0h1v1h-1V3zm9 0h1v1h-1V3zm2 0h2v1h-2V3zm9 0h2v1h-2V3zm6 1h1v1h-1V4zm8 0h1v1h-1V4zm11 0h1v1h-1V4zm4 0h1v1h-1V4zM21 4h1v1h-1V4zm9 0h1v1h-1V4zm7 0h1v1h-1V4zm9 0h1v1h-1V4zm13 1h1v1h-1V5zm11 0h1v1h-1V5zm4 0h1v1h-1V5zM4 5h1v1H4V5zm3 0h1v1H7V5zm5 0h1v1h-1V5zm28 0h1v1h-1V5zm15 1h2v1h-2V6zm10 0h1v1h-1V6zm10 0h1v1h-1V6zM1 6h1v1H1V6zm8 0h1v1H9V6zm16 0h1v1h-1V6zm8 0h1v1h-1V6zm12 0h1v1h-1V6zm2 1h1v1h-1V7zm3 0h1v1h-1V7zm2 0h1v2h-1V7zm3 0h1v1h-1V7zm4 0h1v1h-1V7zM6 7h1v1H6V7zm12 0h1v1h-1V7zm1 0h2v1h-2V7zm7 0h1v1h-1V7zm3 1h1v2h-1V8zm38 0h1v1h-1V8zm7 0h1v1h-1V8zM3 8h1v1H3V8zm4 0h1v1H7V8zm4 0h1v1h-1V8zm4 0h1v1h-1V8zm9 1h1v1h-1V9zm24 0h1v1h-1V9zm3 0h1v1h-1V9zm2 0h1v1h-1V9zm2 0h1v1h-1V9zm13 0h1v1h-1V9zm2 0h1v1h-1V9zm5 1h1v1h-1v-1zm-57 0h1v1h-1v-1zm9 0h1v1h-1v-1zm39 0h1v1h-1v-1zm5 0h2v1h-2v-1zm6 0h2v1h-2v-1zm-65 0h1v1h-1v-1zm4 1h1v1h-1v-1zm12 0h1v1h-1v-1zm3 0h1v1h-1v-1zm1 0h1v1h-1v-1zm9 0h1v1h-1v-1zm3 0h1v1h-1v-1zm2 0h1v1h-1v-1zm12 1h1v2h-1v-2zm5-1h1v1h-1v-1zM6 12h1v1H6v-1zm4 0h1v1h-1v-1zm4 0h1v1h-1v-1zm7 0h1v1h-1v-1zm2 0h1v1h-1v-1zm31 0h1v1h-1v-1zm12 0h1v1h-1v-1zm11 1h1v1h-1v-1zM1 13h1v1H1v-1zm12 0h1v1h-1v-1zm4 0h1v1h-1v-1zm7 0h1v1h-1v-1zm19 0h1v1h-1v-1zm19 0h1v1h-1v-1zm8 1h1v1h-1v-1zM2 14h1v1H2v-1zm20 0h1v1h-1v-1zm4 0h1v1h-1v-1zm5 0h2v1h-2v-1zm10 0h1v1h-1v-1zm-2-2h1v1h-1v-1zm7 2h1v1h-1v-1zm3 0h1v1h-1v-1zm1 1h2v1h-2v-1zm19 0h1v1h-1v-1zm-58 0h1v1h-1v-1zm3 0h1v1h-1v-1zm13 0h2v1h-2v-1zm9 0h1v1h-1v-1zm1-7h1v1h-1V8zm7 7h1v1h-1v-1zm10 1h1v2h-1v-2zm6 0h1v2h-1v-2zm5-1h2v1h-2v-1zm8 1h1v1h-1v-1zM5 16h1v2H5v-2zm8 0h1v1h-1v-1zm35 1h1v2h-1v-2zm4-1h1v1h-1v-1zm4 0h1v1h-1v-1zM2 16h1v1H2v-1zm17 1h1v1h-1v-1zm8 0h1v2h-1v-2zm6 0h1v1h-1v-1zm28 0h2v1h-2v-1zM3 17h1v1H3v-1zm11 0h1v1h-1v-1zm2 0h1v1h-1v-1zm8 1h1v1h-1v-1zm12 0h1v1h-1v-1zm13 0h1v1h-1v-1zm17 0h1v1h-1v-1zm2 0h2v1h-2v-1zm8 0h2v1h-2v-1zM5 18h1v1H5v-1zm6 1h1v1h-1v-1zm15 0h1v1h-1v-1zm32 0h1v1h-1v-1zm2 0h1v1h-1v-1zm13 0h1v1h-1v-1zm-56 0h1v1h-1v-1zm3 0h1v1h-1v-1zm9 1h1v1h-1v-1zm7 0h1v1h-1v-1zm6 0h1v1h-1v-1zm20 0h1v1h-1v-1zm3 0h1v1h-1v-1zm11 0h1v1h-1v-1zM6 20h2v1H6v-1zm6 0h1v1h-1v-1zm23 1h1v1h-1v-1zm11 0h1v1h-1v-1zm7 0h1v1h-1v-1zm11 0h1v1h-1v-1zm7 0h1v1h-1v-1zM5 21h1v1H5v-1zm10 0h1v1h-1v-1zm4 1h1v1h-1v-1zm17 0h1v1h-1v-1zm3 0h1v1h-1v-1zm3 0h1v1h-1v-1zm34 0h1v1h-1v-1zM9 22h1v1H9v-1zm43 0h1v1h-1v-1zm8 0h1v1h-1v-1zm1 1h1v1h-1v-1zm3 0h1v1h-1v-1zm4 0h1v1h-1v-1zM2 24h1v2H2v-2zm27-1h1v1h-1v-1zm6 0h1v1h-1v-1zm5 0h2v1h-2v-1zm6 0h1v1h-1v-1zm11 0h1v1h-1v-1zm15 1h1v1h-1v-1zM4 24h1v1H4v-1zm15 0h1v1h-1v-1zm11 0h1v1h-1v-1zm9 0h1v1h-1v-1zm29 0h1v1h-1v-1zM7 25h1v1H7v-1zm4 0h1v1h-1v-1zm3 0h1v1h-1v-1zm10 0h1v1h-1v-1zm11 0h1v1h-1v-1zm8 1h1v2h-1v-2zm18-1h2v1h-2v-1zm9 0h1v1h-1v-1zm5 0h1v1h-1v-1zm2 1h1v1h-1v-1zm-62 0h1v1h-1v-1zm5 0h1v1h-1v-1zm2 0h1v1h-1v-1zm24 0h1v1h-1v-1zm12 0h1v1h-1v-1zm3 0h1v1h-1v-1zm7 1h1v1h-1v-1zm3 0h1v1h-1v-1zM9 27h1v1H9v-1zm18 0h1v1h-1v-1zm9 0h1v1h-1v-1zm3 0h2v1h-2v-1zm10 0h1v1h-1v-1zm3 1h1v1h-1v-1zm5 0h1v1h-1v-1zm12 0h1v1h-1v-1zm7 0h2v1h-2v-1zM3 28h1v1H3v-1zm20 0h1v1h-1v-1zm3 0h1v1h-1v-1zm2 0h1v1h-1v-1zm19 1h1v1h-1v-1zm13 0h1v1h-1v-1zm1 0h1v1h-1v-1zm10 0h1v1h-1v-1zM8 29h1v1H8v-1zm8 0h2v1h-2v-1zm5 0h1v1h-1v-1zm4 1h1v1h-1v-1zm7 0h1v1h-1v-1zm3 0h1v1h-1v-1zm3 0h1v1h-1v-1zm3 0h1v1h-1v-1zm4 1h1v2h-1v-2zm8 0h1v2h-1v-2zm2-1h1v1h-1v-1zm14 0h1v1h-1v-1zM1 30h1v1H1v-1zm10 1h1v1h-1v-1z" fill-rule="evenodd" clip-rule="evenodd" fill="#404040"></path><path d="M11 31h2v1h-2v-1zm7 0h1v1h-1v-1zm18 0h1v1h-1v-1zm6 0h1v1h-1v-1zm5 0h1v1h-1v-1zm12 1h1v1h-1v-1zm4 0h1v1h-1v-1z" fill-rule="evenodd" clip-rule="evenodd" fill="#404040"></path><path d="M63 32h2v1h-2v-1zm9 0h1v1h-1v-1zm5 0h1v1h-1v-1zM8 33h1v2H8v-2zm11-1h1v1h-1v-1zm23 0h1v1h-1v-1zm31 1h1v1h-1v-1zm-49 0h1v1h-1v-1zm6 0h1v1h-1v-1zm13 0h1v1h-1v-1zm6 0h1v1h-1v-1zm4 0h1v1h-1v-1zm18 0h1v1h-1v-1zm-46 1h1v2h-1v-2zm10 0h1v1h-1v-1zm15 0h1v1h-1v-1zm12 0h1v1h-1v-1zm-52 0h1v1h-1v-1zm4 1h1v2h-1v-2zm17-1h1v1h-1v-1zm8 0h1v1h-1v-1zm12 0h1v1h-1v-1zm6 1h1v2h-1v-2zm4-1h1v1h-1v-1zm8 1h1v2h-1v-2zm3 0h1v1h-1v-1zm4 0h1v1h-1v-1zm-64 0h1v1h-1v-1zm10 0h1v1h-1v-1zm2 0h1v1h-1v-1zm40 1h1v1h-1v-1zm-19 0h1v1h-1v-1zm4 0h1v1h-1v-1zm3 0h1v1h-1v-1zm14 0h1v1h-1v-1zm8 0h1v1h-1v-1zM2 37h1v1H2v-1zm31 0h1v1h-1v-1zm2 0h1v1h-1v-1zm4 0h1v1h-1v-1zm25 0h1v1h-1v-1zm7 0h1v1h-1v-1zM5 37h1v1H5v-1zm6 0h1v1h-1v-1zm4 2h1v2h-1v-2zm30-1h1v1h-1v-1zm6 0h2v1h-2v-1zm12 0h1v1h-1v-1zm4 0h1v1h-1v-1zm5 0h1v1h-1v-1zm4 0h1v1h-1v-1zM7 38h1v1H7v-1zm6 1h1v1h-1v-1zm5 0h1v1h-1v-1zm4 0h1v1h-1v-1zm4 0h1v1h-1v-1zm5 0h1v1h-1v-1zm1 0h1v1h-1v-1zm18 1h1v2h-1v-2zm8-1h2v1h-2v-1zm-30 1h1v1h-1v-1zm10 0h1v1h-1v-1zm1 0h1v1h-1v-1zm3 0h1v1h-1v-1zm12 0h1v1h-1v-1zm2 0h1v1h-1v-1zm12 1h1v1h-1v-1zm-58 0h1v1h-1v-1zm15 0h1v1h-1v-1zm7 0h1v1h-1v-1zm2 0h1v1h-1v-1zm4 0h1v1h-1v-1zm15 0h1v1h-1v-1zm2 0h1v1h-1v-1zM2 42h1v1H2v-1zm11 0h1v1h-1v-1zm7 1h1v2h-1v-2zm2-1h1v1h-1v-1zm8 0h1v1h-1v-1zm3 0h1v1h-1v-1zm14 0h1v1h-1v-1zm9 0h1v1h-1v-1zm10 0h1v1h-1v-1zm5 1h1v1h-1v-1zm3 0h1v1h-1v-1zM4 43h1v1H4v-1zm19 0h1v1h-1v-1zm11 0h1v1h-1v-1zm4 0h1v1h-1v-1zm2 0h1v1h-1v-1zm18 1h1v1h-1v-1zm2 0h2v1h-2v-1zm7 0h1v1h-1v-1zm6 0h1v1h-1v-1zM8 44h1v1H8v-1zm4 0h3v1h-3v-1zm6 0h1v1h-1v-1zm10 1h1v1h-1v-1zm9 0h1v1h-1v-1zm10 0h1v2h-1v-2zm2 0h1v1h-1v-1zm6 0h1v1h-1v-1zm22 0h1v1h-1v-1zM1 45h1v1H1v-1z" fill-rule="evenodd" clip-rule="evenodd" fill="#404040"></path><path d="M28 45h1v1h-1v-1zm29 0h1v1h-1v-1zm2 1h1v1h-1v-1zm-43 0h2v1h-2v-1zm4 0h1v1h-1v-1zm3 0h1v1h-1v-1zm11 0h1v1h-1v-1zm7 1h1v2h-1v-2zm1 0h2v2h-1v-1h-1v-1zm20-1h1v1h-1v-1zm5 1h1v1h-1v-1zm6 0h2v2h-1v-1h-1v-1zM4 47h1v1H4v-1zm22 0h1v1h-1v-1zm11 0h2v1h-2v-1zm11 0h1v1h-1v-1zm3 0h1v1h-1v-1zm12 1h1v1h-1v-1zm3 0h1v1h-1v-1zM6 48h1v1H6v-1zm3 0h2v1H9v-1zm10 0h1v1h-1v-1zm11 0h1v1h-1v-1zm1 1h1v1h-1v-1zm6 0h1v1h-1v-1zm14 0h1v2h-1v-2zm4 0h1v1h-1v-1zM3 49h1v1H3v-1zm5 0h1v1H8v-1zm5 0h1v1h-1v-1zm4 0h1v1h-1v-1zm4 0h1v1h-1v-1zm23 1h1v1h-1v-1zm10 0h1v1h-1v-1zm13 0h1v1h-1v-1zm3 0h1v1h-1v-1zm-60 0h1v1h-1v-1zm19 1h1v2h-1v-2zm9-1h1v1h-1v-1zm14 0h1v1h-1v-1zm17 1h1v1h-1v-1zm-49 1h1v2h-1v-2zm8-1h1v1h-1v-1zm6 0h1v1h-1v-1zm7 0h1v1h-1v-1zm7 0h1v1h-1v-1zm9 1h1v2h-1v-2zm6-1h1v1h-1v-1zM8 52h1v1H8v-1zm15 0h1v1h-1v-1zm17 0h1v1h-1v-1zm4 0h1v1h-1v-1zm16 0h1v1h-1v-1zm13 0h1v1h-1v-1zm4 1h1v1h-1v-1zM2 53h1v1H2v-1zm3 0h1v1H5v-1zm4 0h1v1H9v-1zm6 0h1v1h-1v-1zm16 0h1v1h-1v-1zm8 0h1v1h-1v-1zm8 0h1v1h-1v-1zm11 1h1v1h-1v-1zm16 0h1v1h-1v-1zM6 54h1v1H6v-1zm10 0h1v1h-1v-1zm21 0h1v1h-1v-1zm8 0h1v1h-1v-1zm20 0h1v1h-1v-1zM8 55h1v1H8v-1zm3 2h1v1h-1v-1zm1-2h1v1h-1v-1zm9 0h1v1h-1v-1zm8 0h1v1h-1v-1zm3 0h1v2h-1v-2zm2 0h1v1h-1v-1zm20 0h1v2h-1v-2zM4 55h1v1H4v-1zm11 0h1v1h-1v-1zm29 0h1v1h-1v-1zm31 1h1v2h-1v-2zM3 56h1v1H3v-1zm-1 2h1v1H2v-1zm3-2h1v1H5v-1zm2 2h1v1H7v-1zm0-2h1v1H7v-1zm12 0h1v1h-1v-1zm2 0h1v1h-1v-1zm6 0h1v1h-1v-1zm3 1h1v1h-1v-1zm9 0h2v1h-2v-1zm4 0h1v1h-1v-1zm8 0h1v1h-1v-1zm3 0h1v1h-1v-1zm19 0h1v1h-1v-1zm-57 1h1v1h-1v-1zm6 0h1v1h-1v-1zm26 0h1v1h-1v-1zm15 0h1v1h-1v-1zm2 0h1v1h-1v-1zm-48 0h1v1h-1v-1zm17 0h1v1h-1v-1zm10 0h1v1h-1v-1zm6 1h1v1h-1v-1zm7 0h1v1h-1v-1zm2 0h1v1h-1v-1zm3 0h1v1h-1v-1zm5 0h1v1h-1v-1zm8 0h1v1h-1v-1z" fill-rule="evenodd" clip-rule="evenodd" fill="#404040"></path></pattern></defs><g id="spot-indeed-welcome-6_svg__spot-indeed-welcome-6__Group" clip-path="url(#spot-indeed-welcome-6_svg__spot-indeed-welcome-6__svgClip)"><path id="spot-indeed-welcome-6_svg__spot-indeed-welcome-6__Vector" fill="#D2CEF6" d="M30.322 55.89l83.524-32.198 16.304 73.823H18.83L30.323 55.89z"></path><g id="spot-indeed-welcome-6_svg__spot-indeed-welcome-6__Subtract" filter="url(#spot-indeed-welcome-6_svg__spot-indeed-welcome-6__filter0_di)"><path fill="url(#spot-indeed-welcome-6_svg__spot-indeed-welcome-6__paint0_linear)" d="M33.983 97.975v-.453.453z"></path><path fill="url(#spot-indeed-welcome-6_svg__spot-indeed-welcome-6__paint1_linear)" d="M33.891 92.701h3.503V46.905c0-.325.263-.588.587-.588H111c.325 0 .588.263.588.587v45.797h3.528V46.905A4.116 4.116 0 00111 42.788H37.981a4.115 4.115 0 00-4.115 4.115v45.1c0 .077.006.228.016.46l.009.237z"></path></g><g id="spot-indeed-welcome-6_svg__spot-indeed-welcome-6__Subtract_2"><path fill="#B9DAD0" d="M37.981 46.316H111c.325 0 .588.264.588.588v45.797H37.393V46.904c0-.324.264-.588.588-.588z"></path><path fill="url(#spot-indeed-welcome-6_svg__spot-indeed-welcome-6__paint2_linear)" fill-opacity="0.5" d="M37.981 46.316H111c.325 0 .588.264.588.588v45.797H37.393V46.904c0-.324.264-.588.588-.588z"></path></g><path id="spot-indeed-welcome-6_svg__spot-indeed-welcome-6__Union" fill="#7BC0AE" fill-opacity="0.6" d="M110.994 46.288H72.991a44.057 44.057 0 004.488 6.831 51.688 51.688 0 004.045 4.526 50.713 50.713 0 003.417 3.12c.237.205.479.401.724.6l.104.085.18.144c.06.048.12.096.182.143.081.07.163.135.249.2.249.192.498.386.75.579.372.28.748.556 1.128.831l.029.02.03.021a57.315 57.315 0 007.791 4.704l.146.073c.312.159.624.31.936.457.375.179.753.348 1.129.517l.166.075c.29.128.579.251.868.374a51.864 51.864 0 004.209 1.58c.133.048.265.09.398.131l.199.063a46.65 46.65 0 002.322.668 46.073 46.073 0 005.1 1.029V46.876a.588.588 0 00-.587-.588zm.601 46.415V87.3c-2.616-.182-5.435-.27-8.41-.362l-.385-.012-.459-.016h-.003c-1.143-.04-2.309-.081-3.493-.129l-.352-.015a36.29 36.29 0 00-.372-.017c-.736-.03-1.48-.07-2.228-.11l-.062-.003a135.035 135.035 0 01-2.84-.18l-.233-.019a112.89 112.89 0 01-6.787-.692 121.083 121.083 0 01-2.068-.3l-.308-.048a84.625 84.625 0 01-4.896-.937c-4.322-.964-8.702-2.34-13.042-4.322a41.533 41.533 0 01-1.317-.62 58.63 58.63 0 01-4.715-2.566l-.157-.094a31.749 31.749 0 01-.676-.417 63.737 63.737 0 01-1.172-.756 52.34 52.34 0 01-2.031-1.402.608.608 0 01-.056-.038l-.03-.021a13.039 13.039 0 01-.282-.205l-.121-.09a38.423 38.423 0 01-.536-.4.064.064 0 01-.016-.011l-.005-.005a40.705 40.705 0 01-1.045-.807l-.032-.025-.136-.109-.122-.097a48.173 48.173 0 01-1.05-.858 57.716 57.716 0 01-2.466-2.18c-.208-.195-.416-.39-.624-.59-.235-.225-.47-.452-.706-.682a29.737 29.737 0 01-.38-.376l-.15-.15c-.244-.248-.488-.497-.733-.75a28.252 28.252 0 00-.728-.738 1.94 1.94 0 00-.095-.09 22.965 22.965 0 00-1.159-1.064 18.023 18.023 0 00-.439-.371l-.09-.075a6.007 6.007 0 01-.09-.074c-1.078-.878-2.127-1.57-3.141-2.087-.349-.18-.697-.339-1.04-.48l-.128-.048c-.11-.042-.218-.084-.325-.123a9.764 9.764 0 00-2.308-.539h-.005l-.15-.014v31.517h74.194z"></path><g id="spot-indeed-welcome-6_svg__spot-indeed-welcome-6__Subtract_3" filter="url(#spot-indeed-welcome-6_svg__spot-indeed-welcome-6__filter1_d)"><path fill="url(#spot-indeed-welcome-6_svg__spot-indeed-welcome-6__paint3_linear)" d="M92.09 73.213l-16.54-6.467-13.668 1.87-18.398 8.099a8.168 8.168 0 00-4.283 4.422l-4.646 11.532h68.292l-7.246-16.117a6.405 6.405 0 00-3.51-3.34z"></path></g><g id="spot-indeed-welcome-6_svg__spot-indeed-welcome-6__Subtract_4" filter="url(#spot-indeed-welcome-6_svg__spot-indeed-welcome-6__filter2_d)"><path fill="url(#spot-indeed-welcome-6_svg__spot-indeed-welcome-6__paint4_linear)" d="M96.665 65.06a3.455 3.455 0 00-1.83-2.199.581.581 0 00-.828.578l.617 7.386 3.245 4.3 5.103 17.54h10.597l-5.492-13.218a3.062 3.062 0 01.394-3.03c.244-.32.496-.679.72-1.096l2.923-5.468c.169-.376.271-.766.316-1.156l1.5-5.152a1.33 1.33 0 00-.133-1.023.727.727 0 00-1.221-.054l-.125.175.168-2.528a1.43 1.43 0 00-.159-1.119l-.251-.413a3.291 3.291 0 01-.464-2.018l.066-.71c.016-.173.011-.35-.027-.52-.257-1.153-1.472-1.138-1.827-.38l-3.935 7.626 1.401-6.077a1.217 1.217 0 00-.153-.931c-.456-.702-1.372-.563-1.66.08l-4.02 8.977-1.562 2.77a1.797 1.797 0 01-2.486.86l-.877-3.2z"></path></g><path id="spot-indeed-welcome-6_svg__spot-indeed-welcome-6__Union_2" fill="#DF7838" d="M56.668 51.181c1.575-.241 3.2 2.913 3.2 2.913l.975 6.796c-.499 1.167-2.327.274-3.92-1.828-1.592-2.101-1.83-7.639-.255-7.88zm24.476.751c-1.556-.337-3.372 2.712-3.372 2.712l-1.39 6.723c.426 1.195 2.308.416 4.026-1.584 1.717-2 2.294-7.513.736-7.85z"></path><path id="spot-indeed-welcome-6_svg__spot-indeed-welcome-6__Vector_2" fill="url(#spot-indeed-welcome-6_svg__spot-indeed-welcome-6__paint5_linear)" d="M61.07 63.85s1.663 3.993 1.757 7.164c.094 3.17 6.32 8.574 6.32 8.574l8.059-6.335s-.633-7.41 0-10.785c.633-3.376-16.136 1.383-16.136 1.383z"></path><path id="spot-indeed-welcome-6_svg__spot-indeed-welcome-6__Vector_3" fill="#DF7838" d="M62.115 63.562c-.655.175-1.045.286-1.045.286s1.535 3.686 1.738 6.787l.002.036c.007.111.013.222.016.33v.01a3.006 3.006 0 00.058.498l.008.04c.016.075.034.148.055.222a3.644 3.644 0 00.086.261l.006.013c.028.075.06.15.092.224.003.007.005.013.01.02.034.074.07.147.107.22l.017.032c.038.071.078.142.12.212l.02.03a5.447 5.447 0 00.146.227c.1.148.21.292.325.433l.014.018c.056.068.114.136.172.202.007.006.012.014.018.02a6.936 6.936 0 00.192.208 10.182 10.182 0 00.846.785l10.414-5.481a2.535 2.535 0 001.246-1.38l.145-.386.001-.374c-.009-1.699.056-3.399.28-4.593.538-2.859-11.433.126-15.088 1.1z"></path><path id="spot-indeed-welcome-6_svg__spot-indeed-welcome-6__Vector_4" fill="#767676" d="M68.504 60.48c-6.112-.188-10.904-5.683-10.7-12.274.202-6.591 5.32-11.783 11.432-11.596 6.112.188 12.588 4.968 10.124 16.674"></path><g id="spot-indeed-welcome-6_svg__spot-indeed-welcome-6__Vector_5" filter="url(#spot-indeed-welcome-6_svg__spot-indeed-welcome-6__filter3_d)"><path fill="url(#spot-indeed-welcome-6_svg__spot-indeed-welcome-6__paint6_linear)" d="M80 54.698l-.9-4.425-1.256-6.525a5.421 5.421 0 00-2.847-3.527c-1.263-.627-2.98-1.28-4.982-1.54l.146.006c-.335-.026-.812-.097-1.138-.098a24.886 24.886 0 00-.844-.026c-2.014.135-3.918.74-5.217 1.29a5.42 5.42 0 00-3.058 3.346l-1.356 6.445-1.17 4.361a8.606 8.606 0 001.042 5.284c.321.565.581 1.162.79 1.776l1.345 3.952c.2.589.616 1.08 1.166 1.373l3.81 2.965c.481.2.943.34 1.377.434.364.084.801.15 1.302.164.501.016.943-.022 1.31-.084a8.033 8.033 0 001.402-.349l3.984-2.725a2.45 2.45 0 001.246-1.299l1.585-3.862a10.2 10.2 0 01.898-1.725A8.59 8.59 0 0080 54.698z"></path></g><path id="spot-indeed-welcome-6_svg__spot-indeed-welcome-6__Vector_6" fill="#623721" d="M74.018 59.934s-.362 1.156-.96 1.686c-.6.53-5.864 1.638-5.864 1.638l-2.058-1.109-1.104-.97s-.214-.13-.797-.99l2.718.51 2.726-.003 4.291-.691 1.048-.071z"></path><path id="spot-indeed-welcome-6_svg__spot-indeed-welcome-6__Union_3" fill="#DF7838" d="M66.152 49.531s1.936 2.71 1.5 4.472c0 0-.663-1.14-2.672-2.189l-3.726.943 1.123-2.676 3.775-.55zm-1.22 7.824l-1.867 1.509a1.62 1.62 0 00-.644 2.007c.228.54.534 1.192.917 1.845l.738-2.482 6.826.367.335-.457c.513-.7.564-1.64.13-2.39l-1.826 1.284a1.837 1.837 0 01-2.084.02l-2.525-1.703z"></path><path id="spot-indeed-welcome-6_svg__spot-indeed-welcome-6__Vector_7" fill="#fff" d="M70.646 60.484l-3.046.74s-2.948-1.542-3.014-1.066c-.035.253.165.314.355.588l.655.411c.905.569 2.184 1.155 3.253 1.188l.378-.024c.65-.042 1.641-.452 2.21-.735a1.49 1.49 0 00.67-.664l.409-.635-1.87.197z"></path><path id="spot-indeed-welcome-6_svg__spot-indeed-welcome-6__Vector_8" fill="#B4602B" d="M63.234 60.185s3.348.592 4.62 1.152c.979.431 1.386.094 1.386.094s3.977-.547 4.779-1.5l-.98.087a7.398 7.398 0 01-2.205-.134l-.949-.203a.575.575 0 00-.332.08l-.113.066c-.5.293-1.1.5-1.569.159l-.045-.11c-.122-.088-.228-.019-.378 0 0 0-1.526.087-2.29.15l-1.924.159z"></path><path id="spot-indeed-welcome-6_svg__spot-indeed-welcome-6__Union_4" fill="#623721" d="M66.793 52.545c-.122-.035-1.917-.773-2.575-1.045a.721.721 0 00-.497-.02c-.562.18-1.895.656-2.467 1.277l1.389-.267c.19-.037.382-.063.575-.078a.79.79 0 00.755 1.011.788.788 0 00.778-.913c.155.032.308.072.46.118l.22.068a1.74 1.74 0 001.362-.151zm3.69.078c.118-.025 1.835-.612 2.508-.842l.03-.01a.692.692 0 01.48.01c.53.206 1.783.743 2.298 1.372l-1.32-.337a5.103 5.103 0 00-.517-.105.79.79 0 01-.76.996.788.788 0 01-.76-.996 5.18 5.18 0 00-.44.086l-.215.052a1.676 1.676 0 01-1.304-.226zm-.291 6.549s1.385-1.868 1.792-.917l-1.792.917zm-3.19.043s-1.268-1.949-1.732-1.026l1.732 1.026z"></path><path id="spot-indeed-welcome-6_svg__spot-indeed-welcome-6__Union_5" fill="#DF7838" d="M68.468 64.587c3.988.04 5.29-3.902 5.29-3.902-.732.434-2.016 1.077-2.813 1.47a4.894 4.894 0 01-2.129.52h-.034a4.979 4.979 0 01-2.531-.707l-3.017-1.784s1.245 4.363 5.233 4.403zm-1.663.662l2.812-.155c-1.346 2.16-2.753.236-2.81.157l-.002-.002z"></path><path id="spot-indeed-welcome-6_svg__spot-indeed-welcome-6__Vector_9" fill="#767676" d="M62.965 39.85l1.452.263a23.85 23.85 0 003.525.37l2.216.069a23.992 23.992 0 004.102-.227l.74-.106-4.06-2.526-2.694-.495-1.617-.05-3.664 2.702z"></path><path id="spot-indeed-welcome-6_svg__spot-indeed-welcome-6__Vector_10" fill="url(#spot-indeed-welcome-6_svg__spot-indeed-welcome-6__paint7_linear)" d="M100.673 84.777l8.737-4.906 1.757 5.752s5.089 3.788 5.344 4.86c.256 1.072-.401 2.204-.401 2.204H99.766l.327-2.996 1.176-2.209-.596-2.705z"></path><path id="spot-indeed-welcome-6_svg__spot-indeed-welcome-6__Vector_11" fill="url(#spot-indeed-welcome-6_svg__spot-indeed-welcome-6__paint8_linear)" d="M76.939 66.93s.03 5.38-6.458 7.751c0 0 2.22 5.099 3.127 7.426.235.6.61 1.135 1.08 1.574l4.23-12.47c-.002 0-1.195-4.116-1.98-4.281z"></path><path id="spot-indeed-welcome-6_svg__spot-indeed-welcome-6__Vector_12" fill="url(#spot-indeed-welcome-6_svg__spot-indeed-welcome-6__paint9_linear)" d="M65.707 73.755l-3.084 6.939-3.333-5.261a2.7 2.7 0 01-.363-1.994l.75-3.606c.143-.69 1.739-2.495 1.739-2.495.413-.47.434-.469.826.02l.072.09a7.84 7.84 0 002.96 5.964l.433.343z"></path><path id="spot-indeed-welcome-6_svg__spot-indeed-welcome-6__Union_6" fill="#767676" d="M66.46 49.68c-.21.056-.85.103-1.578.156-.7.05-1.481.108-2.037.184a1.69 1.69 0 00-1.068.596l-1.44 1.735.874-2.578c.004-.078.112-.195.273-.322.58-.46 1.367-.71 2.155-.715l3.208-.022c.754-.103-.388.967-.388.967zm5.71 1.086a41.55 41.55 0 011.99-.2 1.88 1.88 0 011.336.446l1.603 1.364-1.346-2.365c-.018-.077-.147-.17-.328-.266-.655-.341-1.476-.439-2.25-.296l-3.157.585c-.758.042.565.877.565.877.215.014.856-.06 1.587-.145zm.016 8.405l-2.304.511s-1.499.22-2.057.197c-.385-.016-1.774-.523-2.605-.837a1.262 1.262 0 00-1.197.167l-1.115.826c6.712 1.782 11.403-.103 11.403-.103-.572-.72-2.125-.761-2.125-.761z"></path><g id="spot-indeed-welcome-6_svg__spot-indeed-welcome-6__Rectangle_20705" filter="url(#spot-indeed-welcome-6_svg__spot-indeed-welcome-6__filter4_di)"><path fill="#00677A" d="M26.811 92.7h95.36v1.73a3.09 3.09 0 01-3.091 3.091H29.902a3.09 3.09 0 01-3.091-3.09V92.7z"></path></g><path fill="url(#spot-indeed-welcome-6_svg__spot-indeed-welcome-6__texture)" d="M30.323 55.888l3.544-1.366v-7.617a4.115 4.115 0 014.115-4.116h21.209c1.955-3.792 5.754-6.31 10.044-6.179 2.111.065 4.266.678 6.08 1.935l38.532-14.854 16.305 73.823h-10.881a3.147 3.147 0 01-.19.006H29.903a2.99 2.99 0 01-.19-.006H18.832l11.491-41.626zm3.661 42.087v-.453.453z" opacity="0.45" style="mix-blend-mode: overlay;"></path></g></svg>