<svg width="20px" height="20px" viewBox="0 0 20 20"><g stroke="none" stroke-width="1" fill="none" fill-rule="evenodd"><g transform="translate(-250.000000, -406.000000)" fill-rule="nonzero"><g transform="translate(228.000000, 232.000000)"><g transform="translate(20.000000, 143.000000)"><g transform="translate(0.000000, 29.000000)"><g transform="translate(2.000000, 2.000000)"><path d="M17.3555556,4.16666667 L3.75555556,4.16666667 C3.30468581,4.16666667 2.87228656,4.36419792 2.55347281,4.71585417 C2.23466331,5.06746354 2.05555556,5.54436979 2.05555556,6.04166667 L2.05555556,17.2916667 C2.05555556,17.7889635 2.23466331,18.2658698 2.55347281,18.6174792 C2.87228656,18.9691354 3.30468581,19.1666667 3.75555556,19.1666667 L17.3555556,19.1666667 C17.8064381,19.1666667 18.2388331,18.9691354 18.5576256,18.6174792 C18.8764606,18.2658698 19.0555556,17.7889635 19.0555556,17.2916667 L19.0555556,6.04166667 C19.0555556,5.54436979 18.8764606,5.06746354 18.5576256,4.71585417 C18.2388331,4.36419792 17.8064381,4.16666667 17.3555556,4.16666667 L17.3555556,4.16666667 Z M13.1055556,9.66510417 C13.1055556,10.0256198 12.9757181,10.3714167 12.7445606,10.6263229 C12.5134456,10.881276 12.1999231,11.0244792 11.8730556,11.0244792 L9.23805556,11.0244792 C8.91118806,11.0244792 8.59766556,10.881276 8.36655056,10.6263229 C8.13539306,10.3714167 8.00555556,10.0256198 8.00555556,9.66510417 L8.00555556,8.63385417 C8.00555556,8.27333854 8.13539306,7.92754167 8.36655056,7.67263542 C8.59766556,7.41768229 8.91118806,7.27447917 9.23805556,7.27447917 L11.8730556,7.27447917 C12.1999231,7.27447917 12.5134456,7.41768229 12.7445606,7.67263542 C12.9757181,7.92754167 13.1055556,8.27333854 13.1055556,8.63385417 L13.1055556,9.66510417 Z" fill="#D8D8D8"></path><path d="M16.9397517,4.46987952 L12.9277075,4.46987952 L12.9277075,2.62650602 C12.9254521,2.19583325 12.7533462,1.78344675 12.4487778,1.47890843 C12.1442528,1.17437446 11.7318581,1.00227711 11.3012031,1 L8.69879602,1 C8.26814102,1.00227711 7.85574625,1.17437446 7.55122125,1.47890843 C7.24665288,1.78344675 7.0745904,2.19583325 7.07229161,2.62650602 L7.07229161,4.46554217 L3.06024741,4.46554217 C2.78932816,4.46554217 2.52106771,4.51897831 2.27082458,4.62277108 C2.02058146,4.72660723 1.79326988,4.87871807 1.60190621,5.07051566 C1.41053821,5.26226988 1.25886993,5.48989398 1.15558906,5.7403759 C1.0523082,5.99081446 0.999440304,6.25920964 1.00000396,6.53012048 L1.00000396,16.939759 C1.00000396,17.4861783 1.21707093,18.0102169 1.60344163,18.396588 C1.98980799,18.782959 2.51383735,19 3.06024741,19 L16.9397517,19 C17.4861704,19 18.0102084,18.782959 18.3965791,18.396588 C18.7829498,18.0102169 18.9999906,17.4861783 18.9999906,16.939759 L18.9999906,6.53012048 C18.9999906,5.9837012 18.7829498,5.45966265 18.3965791,5.07329157 C18.0102084,4.68692048 17.4861704,4.46987952 16.9397517,4.46987952 L16.9397517,4.46987952 Z M7.72289337,2.62650602 C7.72402108,2.36803036 7.82720652,2.12046747 8.00998224,1.93770024 C8.19275797,1.75492867 8.44033362,1.65174313 8.69879602,1.65060241 L11.3012031,1.65060241 C11.5596655,1.65174313 11.8072411,1.75492867 11.9900168,1.93770024 C12.1727926,2.12046747 12.275978,2.36803036 12.2771057,2.62650602 L12.2771057,4.46554217 L7.72289337,4.46554217 L7.72289337,2.62650602 Z M3.06024741,5.12048193 L16.9397517,5.12048193 C17.3132405,5.12160964 17.6711582,5.27051084 17.9352591,5.53461205 C18.1993601,5.79871325 18.3482611,6.15663133 18.3493888,6.53012048 L18.3493888,9.21060241 L12.9277075,9.21060241 L12.9277075,8.9286747 C12.9265798,8.50916627 12.7594185,8.10713735 12.4627441,7.81050602 C12.166113,7.51383133 11.7640845,7.34666988 11.3445765,7.34554217 L8.65542256,7.34554217 C8.23591455,7.34666988 7.83388603,7.51383133 7.537255,7.81050602 C7.2405806,8.10713735 7.07341932,8.50916627 7.07229161,8.9286747 L7.07229161,9.21060241 L1.65061026,9.21060241 L1.65061026,6.53012048 C1.65175532,6.15663133 1.80063902,5.79871325 2.06474864,5.53461205 C2.32885826,5.27051084 2.68674128,5.12160964 3.06024741,5.12048193 L3.06024741,5.12048193 Z M12.2771057,8.9286747 L12.2771057,9.88289157 C12.275978,10.1298602 12.1773468,10.3663759 12.0027253,10.541041 C11.8280604,10.7156627 11.5915449,10.814294 11.3445765,10.8154217 L8.65542256,10.8154217 C8.40845414,10.814294 8.17193871,10.7156627 7.99727382,10.541041 C7.82265231,10.3663759 7.72402108,10.1298602 7.72289337,9.88289157 L7.72289337,8.9286747 C7.72289337,8.68135904 7.82113424,8.4441494 7.99601599,8.26926747 C8.17089775,8.09438554 8.40810715,7.99614458 8.65542256,7.99614458 L11.3445765,7.99614458 C11.5918919,7.99614458 11.8291013,8.09438554 12.0039831,8.26926747 C12.1788648,8.4441494 12.2771057,8.68135904 12.2771057,8.9286747 L12.2771057,8.9286747 Z M16.9397517,18.3493976 L3.06024741,18.3493976 C2.68674128,18.3482699 2.32885826,18.1993687 2.06474864,17.9352675 C1.80063902,17.6711663 1.65175532,17.3132482 1.65061026,16.939759 L1.65061026,9.86120482 L7.07229161,9.86120482 L7.07229161,9.88289157 C7.07341932,10.3024 7.2405806,10.7044289 7.537255,11.0010602 C7.83388603,11.2977349 8.23591455,11.4648964 8.65542256,11.4660241 L11.3445765,11.4660241 C11.7640845,11.4648964 12.166113,11.2977349 12.4627441,11.0010602 C12.7594185,10.7044289 12.9265798,10.3024 12.9277075,9.88289157 L12.9277075,9.86120482 L18.3493888,9.86120482 L18.3493888,16.939759 C18.3482611,17.3132482 18.1993601,17.6711663 17.9352591,17.9352675 C17.6711582,18.1993687 17.3132405,18.3482699 16.9397517,18.3493976 L16.9397517,18.3493976 Z" fill="#666666"></path></g></g></g></g></g></g></svg>