<?xml version="1.0" standalone="yes"?>
<svg xmlns="http://www.w3.org/2000/svg" width="500" height="500">
<path style="fill:#010101; stroke:none;" d="M0 0L0 500L500 500L500 0L0 0z"/>
<path style="fill:#f6f7f7; stroke:none;" d="M262 220L262 221L267 221L262 220M268 220C272.384 238.414 269 261.079 269 280L270 280L270 236L268 220M426 220L426 221L430 221L426 220z"/>
<path style="fill:#d2eaee; stroke:none;" d="M32 221L33 222L32 221z"/>
<path style="fill:#a6d8e4; stroke:none;" d="M32 280L33 280L33 222L39 224L66 222L41 221L33.0278 222.603L32 238L32 280z"/>
<path style="fill:#d2eaee; stroke:none;" d="M66 221L66 223L68 221L66 221z"/>
<path style="fill:#f6f7f7; stroke:none;" d="M68 221L69 222L68 221z"/>
<path style="fill:#a6d8e4; stroke:none;" d="M97 221L97 280L98 280L98 238L97 221z"/>
<path style="fill:#55b8d1; stroke:none;" d="M98 221C102.395 236.261 111.671 250.836 118.753 265C122.737 272.969 124.154 279.965 134 280C127.657 264.764 119.616 249.775 112.247 235C108.916 228.322 106.09 222.081 98 221z"/>
<path style="fill:#a6d8e4; stroke:none;" d="M102 221L102 222L107 222L102 221z"/>
<path style="fill:#f6f7f7; stroke:none;" d="M133 221L134 222L133 221z"/>
<path style="fill:#d2eaee; stroke:none;" d="M134 221L133 243L134 280L126 280L126 281C128.709 280.99 132.949 281.624 134.397 278.682C136.268 274.877 135 268.155 135 264C135 251.794 138.707 232.218 134 221z"/>
<path style="fill:#a6d8e4; stroke:none;" d="M140 221L141 222L140 221z"/>
<path style="fill:#55b8d1; stroke:none;" d="M141 221C136.091 237.607 135.413 275.053 156 280C145.383 268.366 147 255.884 147 241C147 233.554 149.145 224.381 141 221z"/>
<path style="fill:#a6d8e4; stroke:none;" d="M142 221L142 222L147 222L142 221z"/>
<path style="fill:#d2eaee; stroke:none;" d="M176 221L177 222L176 221M182 221L183 222L182 221z"/>
<path style="fill:#55b8d1; stroke:none;" d="M183 221L183 280L190 280L190 237C190 230.238 190.745 223.228 183 221z"/>
<path style="fill:#a6d8e4; stroke:none;" d="M186 221L189 224C189 220.749 193.282 222 196 222L219 222L186 221z"/>
<path style="fill:#d2eaee; stroke:none;" d="M219 221L220 222L219 221z"/>
<path style="fill:#a6d8e4; stroke:none;" d="M225 221L225 280L226 280L226 239L225 221z"/>
<path style="fill:#55b8d1; stroke:none;" d="M226 221L235.28 253L244 279C249.458 264.741 241.918 249.818 237.333 236C235.063 229.158 233.997 222.618 226 221z"/>
<path style="fill:#a6d8e4; stroke:none;" d="M229 221L229 222L233 222L229 221z"/>
<path style="fill:#d2eaee; stroke:none;" d="M233 221L234 222L233 221M261 221L262 222L261 221z"/>
<path style="fill:#55b8d1; stroke:none;" d="M262 221L262 280L269 280L269 221L262 221z"/>
<path style="fill:#f6f7f7; stroke:none;" d="M292 221L293 222L292 221z"/>
<path style="fill:#a6d8e4; stroke:none;" d="M293 221L294 222L293 221M317 221L317 280L318 280L318 222L342 223C337.92 218.331 323.019 221 317 221z"/>
<path style="fill:#d2eaee; stroke:none;" d="M342 221L343 222L342 221z"/>
<path style="fill:#f6f7f7; stroke:none;" d="M343 221L344 222L343 221M382.667 221.333L383.333 221.667L382.667 221.333z"/>
<path style="fill:#d2eaee; stroke:none;" d="M384 221L386 223L384 221z"/>
<path style="fill:#a6d8e4; stroke:none;" d="M385 221L385 222L395 223L385 221z"/>
<path style="fill:#d2eaee; stroke:none;" d="M394 221L395 222L394 221z"/>
<path style="fill:#f6f7f7; stroke:none;" d="M395.667 221.333L396.333 221.667L395.667 221.333M424 221L424 280L425 280L425 240L424 221z"/>
<path style="fill:#55b8d1; stroke:none;" d="M425 221L425 280C432.971 278.74 432 271.515 432 265L432 221L425 221z"/>
<path style="fill:#f6f7f7; stroke:none;" d="M432 221L432 276L433 276L433 239L432 221z"/>
<path style="fill:#55b8d1; stroke:none;" d="M33 222L33 280L40 280L40 237C40 230.485 40.9709 223.26 33 222z"/>
<path style="fill:#f6f7f7; stroke:none;" d="M38 222L39 223L38 222z"/>
<path style="fill:#010101; stroke:none;" d="M39 222C42.3938 240.28 40.9662 259.571 40 278C48.4843 280.508 64.4533 280.936 71.9853 275.891C87.2794 265.647 87.185 238.95 73.9599 227.214C64.95 219.218 50.1437 222 39 222z"/>
<path style="fill:#f6f7f7; stroke:none;" d="M65 222L66 223L65 222z"/>
<path style="fill:#a6d8e4; stroke:none;" d="M67 222L68 223L67 222z"/>
<path style="fill:#55b8d1; stroke:none;" d="M68 222L69 223L68 222z"/>
<path style="fill:#a6d8e4; stroke:none;" d="M69 222L69 224L71 222L69 222z"/>
<path style="fill:#f6f7f7; stroke:none;" d="M71 222L72 223L71 222M104 222L105 223L104 222z"/>
<path style="fill:#d2eaee; stroke:none;" d="M145 222L146 223L145 222z"/>
<path style="fill:#a6d8e4; stroke:none;" d="M176 222L176 266L177 266C177 253.52 180.81 233.463 176 222M182 222L182 280L183 280L183 241L182 222z"/>
<path style="fill:#f6f7f7; stroke:none;" d="M188 222L189 223L188 222z"/>
<path style="fill:#d2eaee; stroke:none;" d="M231 222L232 223L231 222z"/>
<path style="fill:#a6d8e4; stroke:none;" d="M261 222L259 231L260 231L261 222z"/>
<path style="fill:#d2eaee; stroke:none;" d="M292 222L293 223L292 222z"/>
<path style="fill:#55b8d1; stroke:none;" d="M293 222C286.736 241.257 299.628 261.102 304 280L311 280L300.72 245L293 222z"/>
<path style="fill:#f6f7f7; stroke:none;" d="M294.333 222.667L294.667 223.333L294.333 222.667z"/>
<path style="fill:#55b8d1; stroke:none;" d="M318 222L318 280L324 280L324 237C324 230.839 325.674 223.224 318 222z"/>
<path style="fill:#d2eaee; stroke:none;" d="M322 222L324 224L322 222z"/>
<path style="fill:#010101; stroke:none;" d="M323 222L325 250C329.662 250 336.702 251.301 340.895 248.972C348.129 244.954 348.102 228.417 341.775 223.603C337.372 220.253 328.262 222 323 222z"/>
<path style="fill:#55b8d1; stroke:none;" d="M342 222C347.858 231.832 349.049 240.97 341 250L341 251C347.727 258.972 343.542 277.838 354 280C354 268.269 355.853 255.115 342 251L342 250C357.955 247.108 356.81 225.866 342 222z"/>
<path style="fill:#a6d8e4; stroke:none;" d="M344 222L345 223L344 222z"/>
<path style="fill:#d2eaee; stroke:none;" d="M345 222L346 223L345 222z"/>
<path style="fill:#f6f7f7; stroke:none;" d="M379 222L380 223L379 222z"/>
<path style="fill:#d2eaee; stroke:none;" d="M380 222L381 223L380 222z"/>
<path style="fill:#a6d8e4; stroke:none;" d="M381 222L382 223L381 222z"/>
<path style="fill:#55b8d1; stroke:none;" d="M382 279L382 278C363.877 264.19 360.762 234.057 384 223C373.304 220.788 363.398 235.143 361.239 244C357.446 259.56 366.765 274.611 382 279z"/>
<path style="fill:#a6d8e4; stroke:none;" d="M384 222L385 223L384 222z"/>
<path style="fill:#f6f7f7; stroke:none;" d="M386 222L387 223L386 222z"/>
<path style="fill:#010101; stroke:none;" d="M387 222.624C358.547 229.242 363.867 285.779 394 278.467C411.462 274.229 414.438 248.584 407.622 235C403.949 227.68 395.789 220.58 387 222.624z"/>
<path style="fill:#f6f7f7; stroke:none;" d="M392 222L393 223L392 222z"/>
<path style="fill:#d2eaee; stroke:none;" d="M393 222L394 223L393 222z"/>
<path style="fill:#55b8d1; stroke:none;" d="M395.667 222.333L396.333 222.667L395.667 222.333z"/>
<path style="fill:#a6d8e4; stroke:none;" d="M397.333 222.667L397.667 223.333L397.333 222.667z"/>
<path style="fill:#d2eaee; stroke:none;" d="M398 222L399 223L398 222z"/>
<path style="fill:#f6f7f7; stroke:none;" d="M399 222L400 223L399 222M68 223L69 224L68 223z"/>
<path style="fill:#55b8d1; stroke:none;" d="M70 223L70 224C88.3965 236.967 89.3564 266.226 69 278L69 279C97.056 272.333 98.5802 230.205 70 223z"/>
<path style="fill:#a6d8e4; stroke:none;" d="M72 223L73 224L72 223z"/>
<path style="fill:#d2eaee; stroke:none;" d="M73 223L74 224L73 223M105 223L106 224L105 223z"/>
<path style="fill:#f6f7f7; stroke:none;" d="M146 223L147 226L148 226L146 223M191.333 223.667L191.667 224.333L191.333 223.667z"/>
<path style="fill:#d2eaee; stroke:none;" d="M232 223L233 224L232 223z"/>
<path style="fill:#a6d8e4; stroke:none;" d="M292 223L293 224L292 223z"/>
<path style="fill:#d2eaee; stroke:none;" d="M342 223L343 224L342 223M347 223L348 224L347 223z"/>
<path style="fill:#f6f7f7; stroke:none;" d="M377 223L378 224L377 223z"/>
<path style="fill:#a6d8e4; stroke:none;" d="M378 223L379 224L378 223z"/>
<path style="fill:#d2eaee; stroke:none;" d="M382 223L383 224L382 223z"/>
<path style="fill:#f6f7f7; stroke:none;" d="M383.667 223.333L384.333 223.667L383.667 223.333z"/>
<path style="fill:#d2eaee; stroke:none;" d="M396 223L397 224L396 223z"/>
<path style="fill:#55b8d1; stroke:none;" d="M398 223L398 224C415.867 237.651 416.937 265.425 397 278L397 279C424.33 271.127 426.313 231.175 398 223z"/>
<path style="fill:#a6d8e4; stroke:none;" d="M400 223L401 224L400 223z"/>
<path style="fill:#d2eaee; stroke:none;" d="M401 223L402 224L401 223M39 224L40 225L39 224z"/>
<path style="fill:#f6f7f7; stroke:none;" d="M41 224L42 225L41 224M70 224L71 225L70 224z"/>
<path style="fill:#a6d8e4; stroke:none;" d="M71 224L72 225L71 224z"/>
<path style="fill:#d2eaee; stroke:none;" d="M75 224L76 225L75 224M98 224L99 225L98 224M106 224L107 225L106 224z"/>
<path style="fill:#f6f7f7; stroke:none;" d="M139 224L139 247L140 247L139 224z"/>
<path style="fill:#a6d8e4; stroke:none;" d="M146 224L147 225L146 224z"/>
<path style="fill:#d2eaee; stroke:none;" d="M189 224L190 225L189 224M233 224L234 225L233 224M260 224L261 225L260 224z"/>
<path style="fill:#f6f7f7; stroke:none;" d="M291 224L292 225L291 224z"/>
<path style="fill:#a6d8e4; stroke:none;" d="M294 224L295 225L294 224z"/>
<path style="fill:#f6f7f7; stroke:none;" d="M324 224L325 225L324 224z"/>
<path style="fill:#d2eaee; stroke:none;" d="M343 224L344 225L343 224z"/>
<path style="fill:#a6d8e4; stroke:none;" d="M348 224L349 225L348 224z"/>
<path style="fill:#f6f7f7; stroke:none;" d="M375 224L376 225L375 224z"/>
<path style="fill:#a6d8e4; stroke:none;" d="M376 224L377 225L376 224z"/>
<path style="fill:#d2eaee; stroke:none;" d="M380 224L381 225L380 224z"/>
<path style="fill:#f6f7f7; stroke:none;" d="M381 224L382 225L381 224z"/>
<path style="fill:#d2eaee; stroke:none;" d="M398 224L399 225L398 224z"/>
<path style="fill:#a6d8e4; stroke:none;" d="M402 224L403 225L402 224z"/>
<path style="fill:#f6f7f7; stroke:none;" d="M403 224L404 225L403 224z"/>
<path style="fill:#a6d8e4; stroke:none;" d="M39 225L40 226L39 225z"/>
<path style="fill:#d2eaee; stroke:none;" d="M72 225L73 226L72 225z"/>
<path style="fill:#a6d8e4; stroke:none;" d="M76 225L77 226L76 225z"/>
<path style="fill:#d2eaee; stroke:none;" d="M77 225L78 226L77 225z"/>
<path style="fill:#f6f7f7; stroke:none;" d="M98 225L99 226L98 225z"/>
<path style="fill:#a6d8e4; stroke:none;" d="M99 225L100 226L99 225z"/>
<path style="fill:#d2eaee; stroke:none;" d="M107 225L108 226L107 225z"/>
<path style="fill:#a6d8e4; stroke:none;" d="M189 225L190 226L189 225z"/>
<path style="fill:#f6f7f7; stroke:none;" d="M234 225L235 226L234 225z"/>
<path style="fill:#d2eaee; stroke:none;" d="M261 225L261 263L261.603 278.682L269 281L269 280L262 280L262 243L261 225M291 225L292 226L291 225M324 225L325 226L324 225z"/>
<path style="fill:#a6d8e4; stroke:none;" d="M344 225L345 226L344 225M349 225L351 227L349 225z"/>
<path style="fill:#f6f7f7; stroke:none;" d="M350 225L351 226L350 225M373 225L374 226L373 225z"/>
<path style="fill:#a6d8e4; stroke:none;" d="M374 225L375 226L374 225z"/>
<path style="fill:#f6f7f7; stroke:none;" d="M379 225L380 226L379 225M399 225L400 226L399 225z"/>
<path style="fill:#a6d8e4; stroke:none;" d="M400 225L401 226L400 225M404 225L405 226L404 225z"/>
<path style="fill:#f6f7f7; stroke:none;" d="M405 225L406 226L405 225M73 226L74 227L73 226z"/>
<path style="fill:#a6d8e4; stroke:none;" d="M78 226L79 227L78 226z"/>
<path style="fill:#f6f7f7; stroke:none;" d="M79 226L80 227L79 226z"/>
<path style="fill:#d2eaee; stroke:none;" d="M99 226L100 227L99 226z"/>
<path style="fill:#f6f7f7; stroke:none;" d="M108 226L109 227L108 226z"/>
<path style="fill:#d2eaee; stroke:none;" d="M147 226L147 262L148 262C148 251.613 151.011 235.56 147 226z"/>
<path style="fill:#f6f7f7; stroke:none;" d="M190 226L190 240L191 240L190 226M226 226L226 229L227 229L226 226z"/>
<path style="fill:#a6d8e4; stroke:none;" d="M234 226L235 227L234 226M291 226L292 227L291 226z"/>
<path style="fill:#f6f7f7; stroke:none;" d="M295 226L296 227L295 226z"/>
<path style="fill:#a6d8e4; stroke:none;" d="M324 226L324 250L325 250L324 226z"/>
<path style="fill:#f6f7f7; stroke:none;" d="M344 226L345 227L344 226z"/>
<path style="fill:#d2eaee; stroke:none;" d="M372 226L373 227L372 226z"/>
<path style="fill:#a6d8e4; stroke:none;" d="M377 226L378 227L377 226z"/>
<path style="fill:#f6f7f7; stroke:none;" d="M378 226L379 227L378 226z"/>
<path style="fill:#d2eaee; stroke:none;" d="M401 226L402 227L401 226M406 226L407 227L406 226z"/>
<path style="fill:#f6f7f7; stroke:none;" d="M74 227L75 228L74 227M80 227L81 228L80 227z"/>
<path style="fill:#a6d8e4; stroke:none;" d="M100 227L101 228L100 227z"/>
<path style="fill:#d2eaee; stroke:none;" d="M108 227L109 228L108 227z"/>
<path style="fill:#f6f7f7; stroke:none;" d="M259 227L260 228L259 227M290 227L291 228L290 227z"/>
<path style="fill:#a6d8e4; stroke:none;" d="M295.333 227.667L295.667 228.333L295.333 227.667M345 227L346 228L345 227M351 227L352 228L351 227z"/>
<path style="fill:#d2eaee; stroke:none;" d="M371 227L372 228L371 227z"/>
<path style="fill:#a6d8e4; stroke:none;" d="M376 227L377 228L376 227z"/>
<path style="fill:#d2eaee; stroke:none;" d="M402 227L403 228L402 227z"/>
<path style="fill:#a6d8e4; stroke:none;" d="M407 227L408 228L407 227z"/>
<path style="fill:#f6f7f7; stroke:none;" d="M75 228L76 229L75 228z"/>
<path style="fill:#d2eaee; stroke:none;" d="M81 228L82 229L81 228M100 228L101 229L100 228z"/>
<path style="fill:#f6f7f7; stroke:none;" d="M109 228L110 229L109 228z"/>
<path style="fill:#a6d8e4; stroke:none;" d="M227 228L228 229L227 228z"/>
<path style="fill:#f6f7f7; stroke:none;" d="M235 228L236 229L235 228M260 228L261 229L260 228z"/>
<path style="fill:#d2eaee; stroke:none;" d="M290 228L291 229L290 228M345 228L346 229L345 228z"/>
<path style="fill:#f6f7f7; stroke:none;" d="M352 228L353 229L352 228M369 228L367 231L369 228z"/>
<path style="fill:#a6d8e4; stroke:none;" d="M370 228L371 229L370 228M375 228L376 229L375 228z"/>
<path style="fill:#d2eaee; stroke:none;" d="M403 228L404 229L403 228z"/>
<path style="fill:#a6d8e4; stroke:none;" d="M408 228L409 229L408 228z"/>
<path style="fill:#f6f7f7; stroke:none;" d="M409 228L410 229L409 228M76 229L77 230L76 229z"/>
<path style="fill:#d2eaee; stroke:none;" d="M82 229L83 230L82 229z"/>
<path style="fill:#a6d8e4; stroke:none;" d="M101 229L102 230L101 229z"/>
<path style="fill:#d2eaee; stroke:none;" d="M109 229L110 230L109 229M227 229L228 230L227 229z"/>
<path style="fill:#a6d8e4; stroke:none;" d="M235.333 229.667L235.667 230.333L235.333 229.667M290 229L291 230L290 229z"/>
<path style="fill:#f6f7f7; stroke:none;" d="M296 229L297 230L296 229M345 229L346 230L345 229z"/>
<path style="fill:#a6d8e4; stroke:none;" d="M352 229L353 230L352 229M369 229L370 230L369 229M374 229L373 231L374 229M404 229L405 230L404 229z"/>
<path style="fill:#f6f7f7; stroke:none;" d="M410 229L411 230L410 229z"/>
<path style="fill:#d2eaee; stroke:none;" d="M77 230L78 231L77 230M83 230L84 231L83 230M101 230L102 231L101 230z"/>
<path style="fill:#f6f7f7; stroke:none;" d="M110 230L111 231L110 230M258 230L260 232L258 230M289.333 230.667L289.667 231.333L289.333 230.667z"/>
<path style="fill:#d2eaee; stroke:none;" d="M296 230L297 231L296 230z"/>
<path style="fill:#a6d8e4; stroke:none;" d="M346.333 230.667L346.667 231.333L346.333 230.667z"/>
<path style="fill:#f6f7f7; stroke:none;" d="M353 230L354 231L353 230z"/>
<path style="fill:#a6d8e4; stroke:none;" d="M368 230L369 231L368 230z"/>
<path style="fill:#f6f7f7; stroke:none;" d="M374 230L375 231L374 230z"/>
<path style="fill:#a6d8e4; stroke:none;" d="M405 230L406 231L405 230z"/>
<path style="fill:#f6f7f7; stroke:none;" d="M411 230L413 232L411 230z"/>
<path style="fill:#a6d8e4; stroke:none;" d="M78 231L79 232L78 231z"/>
<path style="fill:#d2eaee; stroke:none;" d="M84 231L85 232L84 231M110 231L111 232L110 231z"/>
<path style="fill:#a6d8e4; stroke:none;" d="M228 231L229 232L228 231z"/>
<path style="fill:#f6f7f7; stroke:none;" d="M236 231L237 232L236 231z"/>
<path style="fill:#d2eaee; stroke:none;" d="M258 231L259 232L258 231z"/>
<path style="fill:#a6d8e4; stroke:none;" d="M296 231L297 232L296 231M353.333 231.667L353.667 232.333L353.333 231.667M367 231L368 232L367 231z"/>
<path style="fill:#f6f7f7; stroke:none;" d="M373 231L374 232L373 231M405 231L406 232L405 231z"/>
<path style="fill:#a6d8e4; stroke:none;" d="M411 231L412 232L411 231z"/>
<path style="fill:#f6f7f7; stroke:none;" d="M78 232L79 233L78 232M85 232L86 233L85 232z"/>
<path style="fill:#d2eaee; stroke:none;" d="M102 232L103 233L102 232z"/>
<path style="fill:#f6f7f7; stroke:none;" d="M111 232L112 233L111 232z"/>
<path style="fill:#d2eaee; stroke:none;" d="M228 232L229 233L228 232M236 232L237 233L236 232z"/>
<path style="fill:#a6d8e4; stroke:none;" d="M258.333 232.667L258.667 233.333L258.333 232.667M289 232L290 237L291 237L289 232z"/>
<path style="fill:#f6f7f7; stroke:none;" d="M297 232L298 233L297 232z"/>
<path style="fill:#d2eaee; stroke:none;" d="M346.333 232.667L346.667 233.333L346.333 232.667z"/>
<path style="fill:#a6d8e4; stroke:none;" d="M366 232L367 233L366 232M372 232L373 233L372 232z"/>
<path style="fill:#d2eaee; stroke:none;" d="M406 232L407 233L406 232z"/>
<path style="fill:#a6d8e4; stroke:none;" d="M412 232L413 233L412 232z"/>
<path style="fill:#d2eaee; stroke:none;" d="M79 233L80 234L79 233z"/>
<path style="fill:#f6f7f7; stroke:none;" d="M86 233L87 234L86 233z"/>
<path style="fill:#d2eaee; stroke:none;" d="M111 233L112 234L111 233z"/>
<path style="fill:#f6f7f7; stroke:none;" d="M228 233L229 234L228 233z"/>
<path style="fill:#a6d8e4; stroke:none;" d="M236 233L237 234L236 233z"/>
<path style="fill:#f6f7f7; stroke:none;" d="M257 233L258 234L257 233z"/>
<path style="fill:#d2eaee; stroke:none;" d="M297 233L298 234L297 233z"/>
<path style="fill:#f6f7f7; stroke:none;" d="M354 233L354 236L355 236L354 233z"/>
<path style="fill:#d2eaee; stroke:none;" d="M365 233L366 234L365 233z"/>
<path style="fill:#f6f7f7; stroke:none;" d="M372 233L373 234L372 233z"/>
<path style="fill:#a6d8e4; stroke:none;" d="M407 233L408 234L407 233z"/>
<path style="fill:#d2eaee; stroke:none;" d="M413 233L414 234L413 233z"/>
<path style="fill:#a6d8e4; stroke:none;" d="M80 234L81 235L80 234M86 234L87 235L86 234z"/>
<path style="fill:#d2eaee; stroke:none;" d="M103 234L104 235L103 234z"/>
<path style="fill:#f6f7f7; stroke:none;" d="M112 234L113 235L112 234z"/>
<path style="fill:#a6d8e4; stroke:none;" d="M229 234L230 235L229 234z"/>
<path style="fill:#f6f7f7; stroke:none;" d="M237 234L238 235L237 234z"/>
<path style="fill:#d2eaee; stroke:none;" d="M257.667 234.333L258.333 234.667L257.667 234.333z"/>
<path style="fill:#f6f7f7; stroke:none;" d="M288 234L289 235L288 234z"/>
<path style="fill:#a6d8e4; stroke:none;" d="M297 234L298 235L297 234z"/>
<path style="fill:#f6f7f7; stroke:none;" d="M346 234L346 239L347 239L346 234M364 234L365 235L364 234z"/>
<path style="fill:#d2eaee; stroke:none;" d="M371 234L372 235L371 234z"/>
<path style="fill:#f6f7f7; stroke:none;" d="M407 234L408 235L407 234M414 234L415 235L414 234z"/>
<path style="fill:#d2eaee; stroke:none;" d="M80 235L81 236L80 235z"/>
<path style="fill:#f6f7f7; stroke:none;" d="M87 235L88 236L87 235z"/>
<path style="fill:#d2eaee; stroke:none;" d="M112 235L113 236L112 235M229 235L230 236L229 235M237 235L238 236L237 235z"/>
<path style="fill:#a6d8e4; stroke:none;" d="M257.333 235.667L257.667 236.333L257.333 235.667z"/>
<path style="fill:#f6f7f7; stroke:none;" d="M258 235L259 236L258 235z"/>
<path style="fill:#d2eaee; stroke:none;" d="M288.667 235.333L289.333 235.667L288.667 235.333z"/>
<path style="fill:#f6f7f7; stroke:none;" d="M298 235L299 236L298 235z"/>
<path style="fill:#a6d8e4; stroke:none;" d="M364 235L365 236L364 235M408 235L409 236L408 235M414 235L415 236L414 235M87 236L88 237L87 236z"/>
<path style="fill:#d2eaee; stroke:none;" d="M104 236L105 237L104 236z"/>
<path style="fill:#f6f7f7; stroke:none;" d="M113 236L114 237L113 236M229 236L230 237L229 236z"/>
<path style="fill:#a6d8e4; stroke:none;" d="M237 236L238 237L237 236M288.333 236.667L288.667 237.333L288.333 236.667z"/>
<path style="fill:#f6f7f7; stroke:none;" d="M289 236L290 237L289 236z"/>
<path style="fill:#d2eaee; stroke:none;" d="M298 236L299 237L298 236M354 236L355 237L354 236z"/>
<path style="fill:#f6f7f7; stroke:none;" d="M363 236L364 237L363 236z"/>
<path style="fill:#d2eaee; stroke:none;" d="M370 236L371 237L370 236M408 236L409 237L408 236M415 236L416 237L415 236z"/>
<path style="fill:#f6f7f7; stroke:none;" d="M40 237L40 264L41 264L40 237z"/>
<path style="fill:#d2eaee; stroke:none;" d="M81 237L82 238L81 237M88 237L89 238L88 237M113 237L114 238L113 237z"/>
<path style="fill:#a6d8e4; stroke:none;" d="M230.333 237.667L230.667 238.333L230.333 237.667z"/>
<path style="fill:#f6f7f7; stroke:none;" d="M238 237L239 238L238 237z"/>
<path style="fill:#d2eaee; stroke:none;" d="M256.667 237.333L257.333 237.667L256.667 237.333z"/>
<path style="fill:#f6f7f7; stroke:none;" d="M287 237L288 238L287 237M290 237L291 238L290 237z"/>
<path style="fill:#a6d8e4; stroke:none;" d="M298 237L299 238L298 237z"/>
<path style="fill:#f6f7f7; stroke:none;" d="M354.333 237.667L354.667 238.333L354.333 237.667z"/>
<path style="fill:#a6d8e4; stroke:none;" d="M363 237L364 238L363 237z"/>
<path style="fill:#f6f7f7; stroke:none;" d="M370 237L371 238L370 237M81 238L82 239L81 238z"/>
<path style="fill:#a6d8e4; stroke:none;" d="M88 238L89 239L88 238z"/>
<path style="fill:#d2eaee; stroke:none;" d="M105 238L106 239L105 238M238 238L239 239L238 238z"/>
<path style="fill:#a6d8e4; stroke:none;" d="M256.333 238.667L256.667 239.333L256.333 238.667z"/>
<path style="fill:#f6f7f7; stroke:none;" d="M257 238L258 239L257 238z"/>
<path style="fill:#d2eaee; stroke:none;" d="M287.667 238.333L288.333 238.667L287.667 238.333M362 238L363 239L362 238z"/>
<path style="fill:#a6d8e4; stroke:none;" d="M369 238L370 239L369 238z"/>
<path style="fill:#d2eaee; stroke:none;" d="M409 238L410 239L409 238M416 238L417 239L416 238z"/>
<path style="fill:#a6d8e4; stroke:none;" d="M82 239L83 240L82 239z"/>
<path style="fill:#d2eaee; stroke:none;" d="M89 239L90 240L89 239M114 239L115 240L114 239z"/>
<path style="fill:#f6f7f7; stroke:none;" d="M230 239L231 240L230 239z"/>
<path style="fill:#a6d8e4; stroke:none;" d="M238 239L239 240L238 239M287.333 239.667L287.667 240.333L287.333 239.667z"/>
<path style="fill:#f6f7f7; stroke:none;" d="M288 239L289 240L288 239z"/>
<path style="fill:#a6d8e4; stroke:none;" d="M291 239L292 240L291 239z"/>
<path style="fill:#f6f7f7; stroke:none;" d="M299 239L300 240L299 239z"/>
<path style="fill:#d2eaee; stroke:none;" d="M346 239L347 240L346 239z"/>
<path style="fill:#a6d8e4; stroke:none;" d="M362 239L363 240L362 239z"/>
<path style="fill:#f6f7f7; stroke:none;" d="M369 239L370 240L369 239M409 239L410 240L409 239z"/>
<path style="fill:#d2eaee; stroke:none;" d="M82 240L83 241L82 240z"/>
<path style="fill:#a6d8e4; stroke:none;" d="M89 240L90 241L89 240z"/>
<path style="fill:#d2eaee; stroke:none;" d="M106 240L107 241L106 240M255.667 240.333L256.333 240.667L255.667 240.333M291 240L292 241L291 240z"/>
<path style="fill:#a6d8e4; stroke:none;" d="M299 240L300 241L299 240M346.333 240.667L346.667 241.333L346.333 240.667M353 240L354 241L353 240z"/>
<path style="fill:#f6f7f7; stroke:none;" d="M361 240L362 241L361 240z"/>
<path style="fill:#a6d8e4; stroke:none;" d="M410.333 240.667L410.667 241.333L410.333 240.667z"/>
<path style="fill:#d2eaee; stroke:none;" d="M417 240L418 241L417 240z"/>
<path style="fill:#f6f7f7; stroke:none;" d="M82 241L83 242L82 241M90 241L91 242L90 241z"/>
<path style="fill:#d2eaee; stroke:none;" d="M115 241L116 242L115 241z"/>
<path style="fill:#a6d8e4; stroke:none;" d="M231 241L232 242L231 241z"/>
<path style="fill:#f6f7f7; stroke:none;" d="M239 241L240 242L239 241z"/>
<path style="fill:#a6d8e4; stroke:none;" d="M255 241L254 247L255 247L255 241z"/>
<path style="fill:#f6f7f7; stroke:none;" d="M256.333 241.667L256.667 242.333L256.333 241.667z"/>
<path style="fill:#d2eaee; stroke:none;" d="M286.667 241.333L287.333 241.667L286.667 241.333M353 241L354 242L353 241z"/>
<path style="fill:#a6d8e4; stroke:none;" d="M361.333 241.667L361.667 242.333L361.333 241.667M368 241L369 242L368 241M417 241L418 242L417 241z"/>
<path style="fill:#d2eaee; stroke:none;" d="M90 242L91 243L90 242M107 242L108 243L107 242z"/>
<path style="fill:#f6f7f7; stroke:none;" d="M231 242L232 243L231 242z"/>
<path style="fill:#a6d8e4; stroke:none;" d="M239 242L240 243L239 242M286.333 242.667L286.667 243.333L286.333 242.667z"/>
<path style="fill:#f6f7f7; stroke:none;" d="M287 242L288 243L287 242z"/>
<path style="fill:#a6d8e4; stroke:none;" d="M292 242L293 243L292 242z"/>
<path style="fill:#f6f7f7; stroke:none;" d="M300 242L301 243L300 242z"/>
<path style="fill:#a6d8e4; stroke:none;" d="M352 242L353 243L352 242z"/>
<path style="fill:#d2eaee; stroke:none;" d="M368 242L369 243L368 242M410 242L411 243L410 242z"/>
<path style="fill:#a6d8e4; stroke:none;" d="M83 243L84 244L83 243M90 243L91 244L90 243z"/>
<path style="fill:#f6f7f7; stroke:none;" d="M95 243L95 255L96 255L95 243M107 243L108 244L107 243z"/>
<path style="fill:#d2eaee; stroke:none;" d="M116 243L117 244L116 243z"/>
<path style="fill:#f6f7f7; stroke:none;" d="M254 243L255 244L254 243z"/>
<path style="fill:#d2eaee; stroke:none;" d="M292 243L293 244L292 243M300 243L301 244L300 243z"/>
<path style="fill:#f6f7f7; stroke:none;" d="M345 243L346 244L345 243z"/>
<path style="fill:#d2eaee; stroke:none;" d="M352 243L353 244L352 243z"/>
<path style="fill:#f6f7f7; stroke:none;" d="M360 243L361 244L360 243M368.333 243.667L368.667 244.333L368.333 243.667M410 243L411 244L410 243M418 243L419 244L418 243z"/>
<path style="fill:#d2eaee; stroke:none;" d="M83.3333 244.667L83.6667 245.333L83.3333 244.667z"/>
<path style="fill:#f6f7f7; stroke:none;" d="M92 244L93 245L92 244z"/>
<path style="fill:#d2eaee; stroke:none;" d="M108 244L109 245L108 244z"/>
<path style="fill:#a6d8e4; stroke:none;" d="M116 244L117 245L116 244M232 244L233 245L232 244z"/>
<path style="fill:#f6f7f7; stroke:none;" d="M240 244L241 245L240 244M255 244L256 245L255 244M285 244L286 247L287 247L285 244z"/>
<path style="fill:#d2eaee; stroke:none;" d="M286 244L287 245L286 244z"/>
<path style="fill:#f6f7f7; stroke:none;" d="M292 244L293 245L292 244z"/>
<path style="fill:#a6d8e4; stroke:none;" d="M300 244L301 245L300 244M345 244L346 245L345 244M351 244L352 245L351 244z"/>
<path style="fill:#d2eaee; stroke:none;" d="M360 244L361 245L360 244M418 244L419 245L418 244z"/>
<path style="fill:#f6f7f7; stroke:none;" d="M108 245L109 246L108 245z"/>
<path style="fill:#d2eaee; stroke:none;" d="M117 245L118 246L117 245M232 245L233 246L232 245z"/>
<path style="fill:#a6d8e4; stroke:none;" d="M240.333 245.667L240.667 246.333L240.333 245.667M285 245L284 251L285 251L285 245M293 245L294 246L293 245z"/>
<path style="fill:#f6f7f7; stroke:none;" d="M301 245L302 246L301 245M344 245L345 246L344 245M351 245L352 246L351 245z"/>
<path style="fill:#a6d8e4; stroke:none;" d="M360 245L360 248L361 248L360 245M411 245L411 249L412 249L411 245M418.333 245.667L418.667 246.333L418.333 245.667z"/>
<path style="fill:#f6f7f7; stroke:none;" d="M83.3333 246.667L83.6667 247.333L83.3333 246.667M91 246L92 247L91 246M93 246L93 251L94 251L93 246z"/>
<path style="fill:#d2eaee; stroke:none;" d="M109 246L110 247L109 246z"/>
<path style="fill:#a6d8e4; stroke:none;" d="M117 246L118 247L117 246z"/>
<path style="fill:#f6f7f7; stroke:none;" d="M253 246L254 250L255 250L253 246z"/>
<path style="fill:#d2eaee; stroke:none;" d="M293 246L294 247L293 246M301 246L302 247L301 246z"/>
<path style="fill:#a6d8e4; stroke:none;" d="M344 246L345 247L344 246z"/>
<path style="fill:#f6f7f7; stroke:none;" d="M350 246L351 247L350 246z"/>
<path style="fill:#a6d8e4; stroke:none;" d="M367 246L367 250L368 250L367 246z"/>
<path style="fill:#d2eaee; stroke:none;" d="M91.3333 247.667L91.6667 248.333L91.3333 247.667z"/>
<path style="fill:#f6f7f7; stroke:none;" d="M109 247L110 248L109 247z"/>
<path style="fill:#d2eaee; stroke:none;" d="M118 247L119 248L118 247z"/>
<path style="fill:#a6d8e4; stroke:none;" d="M233 247L234 248L233 247z"/>
<path style="fill:#f6f7f7; stroke:none;" d="M241 247L242 248L241 247z"/>
<path style="fill:#d2eaee; stroke:none;" d="M253 247L254 248L253 247z"/>
<path style="fill:#f6f7f7; stroke:none;" d="M284 247L285 248L284 247M293 247L294 248L293 247z"/>
<path style="fill:#a6d8e4; stroke:none;" d="M301 247L302 248L301 247z"/>
<path style="fill:#f6f7f7; stroke:none;" d="M343 247L344 248L343 247M349 247L350 248L349 247z"/>
<path style="fill:#a6d8e4; stroke:none;" d="M110 248L111 249L110 248M118 248L119 249L118 248z"/>
<path style="fill:#d2eaee; stroke:none;" d="M233 248L234 249L233 248M241 248L242 249L241 248z"/>
<path style="fill:#a6d8e4; stroke:none;" d="M253.333 248.667L253.667 249.333L253.333 248.667z"/>
<path style="fill:#f6f7f7; stroke:none;" d="M285 248L286 249L285 248z"/>
<path style="fill:#a6d8e4; stroke:none;" d="M294 248L295 249L294 248z"/>
<path style="fill:#f6f7f7; stroke:none;" d="M302 248L303 249L302 248M326 248L327 249L326 248M342 248L343 249L342 248z"/>
<path style="fill:#a6d8e4; stroke:none;" d="M347 248L348 249L347 248z"/>
<path style="fill:#f6f7f7; stroke:none;" d="M348 248L349 249L348 248M359 248L359 252L360 252L359 248M419 248L419 253L420 253L419 248z"/>
<path style="fill:#a6d8e4; stroke:none;" d="M91 249L91 252L92 252L91 249z"/>
<path style="fill:#f6f7f7; stroke:none;" d="M110 249L111 250L110 249z"/>
<path style="fill:#d2eaee; stroke:none;" d="M119 249L120 250L119 249z"/>
<path style="fill:#f6f7f7; stroke:none;" d="M190 249L191 250L190 249M194 249L194 250L200 250L194 249M233 249L234 250L233 249z"/>
<path style="fill:#a6d8e4; stroke:none;" d="M241 249L242 250L241 249z"/>
<path style="fill:#f6f7f7; stroke:none;" d="M252 249L253 250L252 249z"/>
<path style="fill:#d2eaee; stroke:none;" d="M294 249L295 250L294 249M302 249L303 250L302 249M341 249L342 250L341 249z"/>
<path style="fill:#a6d8e4; stroke:none;" d="M345 249L346 250L345 249z"/>
<path style="fill:#d2eaee; stroke:none;" d="M346 249L347 250L346 249M411 249L411 253L412 253L411 249z"/>
<path style="fill:#a6d8e4; stroke:none;" d="M111 250L112 251L111 250M119 250L120 251L119 250M190 250L190 251L201 251L190 250z"/>
<path style="fill:#f6f7f7; stroke:none;" d="M201 250L202 251L201 250z"/>
<path style="fill:#a6d8e4; stroke:none;" d="M234 250L235 251L234 250z"/>
<path style="fill:#f6f7f7; stroke:none;" d="M242 250L243 251L242 250z"/>
<path style="fill:#d2eaee; stroke:none;" d="M252.667 250.333L253.333 250.667L252.667 250.333z"/>
<path style="fill:#f6f7f7; stroke:none;" d="M283 250L284 251L283 250M294 250L295 251L294 250z"/>
<path style="fill:#a6d8e4; stroke:none;" d="M302 250L303 251L302 250M324 280L325 280L325 251L342 252C339.723 250.275 337.891 250.052 334.999 250.005C318.71 249.739 324 267.491 324 280M342 250L342 251L345 252L342 250z"/>
<path style="fill:#f6f7f7; stroke:none;" d="M344 250L345 251L344 250z"/>
<path style="fill:#d2eaee; stroke:none;" d="M367 250L368 251L367 250z"/>
<path style="fill:#f6f7f7; stroke:none;" d="M111 251L112 252L111 251z"/>
<path style="fill:#d2eaee; stroke:none;" d="M120 251L121 252L120 251z"/>
<path style="fill:#f6f7f7; stroke:none;" d="M190 251L191 252L190 251M193 251L193 252L201 252L193 251z"/>
<path style="fill:#d2eaee; stroke:none;" d="M234 251L235 252L234 251M242 251L243 252L242 251z"/>
<path style="fill:#a6d8e4; stroke:none;" d="M252.333 251.667L252.667 252.333L252.333 251.667z"/>
<path style="fill:#d2eaee; stroke:none;" d="M283.667 251.333L284.333 251.667L283.667 251.333z"/>
<path style="fill:#f6f7f7; stroke:none;" d="M325 251L326 252L325 251M328 251L328 252L340 252L328 251z"/>
<path style="fill:#d2eaee; stroke:none;" d="M340 251L341 252L340 251z"/>
<path style="fill:#f6f7f7; stroke:none;" d="M345 251L346 252L345 251z"/>
<path style="fill:#a6d8e4; stroke:none;" d="M367 251L367 256L368 256L367 251z"/>
<path style="fill:#d2eaee; stroke:none;" d="M91 252L91 255L92 255L91 252z"/>
<path style="fill:#a6d8e4; stroke:none;" d="M112 252L113 253L112 252M120 252L121 253L120 252z"/>
<path style="fill:#f6f7f7; stroke:none;" d="M234 252L235 253L234 252z"/>
<path style="fill:#a6d8e4; stroke:none;" d="M242 252L243 253L242 252M283.333 252.667L283.667 253.333L283.333 252.667z"/>
<path style="fill:#f6f7f7; stroke:none;" d="M284 252L285 253L284 252z"/>
<path style="fill:#a6d8e4; stroke:none;" d="M295 252L296 253L295 252z"/>
<path style="fill:#d2eaee; stroke:none;" d="M303 252L304 253L303 252z"/>
<path style="fill:#a6d8e4; stroke:none;" d="M342 252L343 253L342 252M346 252L347 253L346 252z"/>
<path style="fill:#f6f7f7; stroke:none;" d="M347 252L348 253L347 252M83 253L83 256L84 256L83 253M112 253L113 254L112 253z"/>
<path style="fill:#d2eaee; stroke:none;" d="M121 253L122 254L121 253z"/>
<path style="fill:#a6d8e4; stroke:none;" d="M235.333 253.667L235.667 254.333L235.333 253.667z"/>
<path style="fill:#d2eaee; stroke:none;" d="M251.667 253.333L252.333 253.667L251.667 253.333z"/>
<path style="fill:#f6f7f7; stroke:none;" d="M295 253L296 254L295 253z"/>
<path style="fill:#a6d8e4; stroke:none;" d="M303 253L304 254L303 253M343 253L344 254L343 253z"/>
<path style="fill:#d2eaee; stroke:none;" d="M348 253L349 254L348 253z"/>
<path style="fill:#a6d8e4; stroke:none;" d="M411 253L411 257L412 257L411 253M113 254L114 255L113 254M121 254L122 255L121 254z"/>
<path style="fill:#d2eaee; stroke:none;" d="M243 254L244 255L243 254z"/>
<path style="fill:#a6d8e4; stroke:none;" d="M251.333 254.667L251.667 255.333L251.333 254.667z"/>
<path style="fill:#f6f7f7; stroke:none;" d="M252 254L253 255L252 254z"/>
<path style="fill:#d2eaee; stroke:none;" d="M282.667 254.333L283.333 254.667L282.667 254.333z"/>
<path style="fill:#a6d8e4; stroke:none;" d="M349 254L350 255L349 254M360.333 254.667L360.667 255.333L360.333 254.667z"/>
<path style="fill:#f6f7f7; stroke:none;" d="M91 255L92 256L91 255M113 255L114 256L113 255z"/>
<path style="fill:#d2eaee; stroke:none;" d="M122 255L123 256L122 255z"/>
<path style="fill:#f6f7f7; stroke:none;" d="M235 255L236 256L235 255z"/>
<path style="fill:#a6d8e4; stroke:none;" d="M243 255L244 256L243 255M282.333 255.667L282.667 256.333L282.333 255.667z"/>
<path style="fill:#f6f7f7; stroke:none;" d="M283 255L284 256L283 255z"/>
<path style="fill:#a6d8e4; stroke:none;" d="M296 255L297 256L296 255z"/>
<path style="fill:#f6f7f7; stroke:none;" d="M304 255L305 256L304 255z"/>
<path style="fill:#d2eaee; stroke:none;" d="M344 255L345 256L344 255z"/>
<path style="fill:#a6d8e4; stroke:none;" d="M350 255L351 256L350 255M418.333 255.667L418.667 256.333L418.333 255.667z"/>
<path style="fill:#d2eaee; stroke:none;" d="M83 256L84 257L83 256z"/>
<path style="fill:#a6d8e4; stroke:none;" d="M114 256L115 257L114 256M122 256L123 257L122 256z"/>
<path style="fill:#f6f7f7; stroke:none;" d="M250 256L252 258L250 256z"/>
<path style="fill:#d2eaee; stroke:none;" d="M251 256L252 257L251 256M296 256L297 257L296 256z"/>
<path style="fill:#a6d8e4; stroke:none;" d="M304.333 256.667L304.667 257.333L304.333 256.667M345 256L346 257L345 256z"/>
<path style="fill:#d2eaee; stroke:none;" d="M351 256L352 257L351 256M360 256L361 257L360 256z"/>
<path style="fill:#f6f7f7; stroke:none;" d="M368.333 256.667L368.667 257.333L368.333 256.667z"/>
<path style="fill:#a6d8e4; stroke:none;" d="M83.3333 257.667L83.6667 258.333L83.3333 257.667M90.3333 257.667L90.6667 258.333L90.3333 257.667z"/>
<path style="fill:#f6f7f7; stroke:none;" d="M114 257L115 258L114 257z"/>
<path style="fill:#d2eaee; stroke:none;" d="M123 257L124 258L123 257z"/>
<path style="fill:#f6f7f7; stroke:none;" d="M190 257L190 279L191 279L190 257z"/>
<path style="fill:#a6d8e4; stroke:none;" d="M236 257L237 258L236 257z"/>
<path style="fill:#f6f7f7; stroke:none;" d="M244 257L245 258L244 257z"/>
<path style="fill:#a6d8e4; stroke:none;" d="M250 257L249 263L250 263L250 257z"/>
<path style="fill:#d2eaee; stroke:none;" d="M281.667 257.333L282.333 257.667L281.667 257.333M345 257L346 258L345 257z"/>
<path style="fill:#f6f7f7; stroke:none;" d="M352 257L353 258L352 257M360 257L361 258L360 257M410.333 257.667L410.667 258.333L410.333 257.667z"/>
<path style="fill:#d2eaee; stroke:none;" d="M418 257L419 258L418 257z"/>
<path style="fill:#a6d8e4; stroke:none;" d="M115 258L116 259L115 258M123 258L124 259L123 258z"/>
<path style="fill:#d2eaee; stroke:none;" d="M236 258L237 259L236 258z"/>
<path style="fill:#a6d8e4; stroke:none;" d="M244 258L245 259L244 258M281.333 258.667L281.667 259.333L281.333 258.667z"/>
<path style="fill:#f6f7f7; stroke:none;" d="M282 258L283 259L282 258z"/>
<path style="fill:#a6d8e4; stroke:none;" d="M297 258L298 259L297 258z"/>
<path style="fill:#f6f7f7; stroke:none;" d="M305 258L306 259L305 258M345 258L346 259L345 258z"/>
<path style="fill:#a6d8e4; stroke:none;" d="M352 258L353 259L352 258z"/>
<path style="fill:#d2eaee; stroke:none;" d="M368 258L369 259L368 258z"/>
<path style="fill:#f6f7f7; stroke:none;" d="M418 258L419 259L418 258M82.3333 259.667L82.6667 260.333L82.3333 259.667M90 259L91 260L90 259M115 259L116 260L115 259z"/>
<path style="fill:#d2eaee; stroke:none;" d="M124 259L125 260L124 259z"/>
<path style="fill:#f6f7f7; stroke:none;" d="M249 259L250 260L249 259z"/>
<path style="fill:#d2eaee; stroke:none;" d="M297 259L298 260L297 259M305 259L306 260L305 259z"/>
<path style="fill:#a6d8e4; stroke:none;" d="M346.333 259.667L346.667 260.333L346.333 259.667z"/>
<path style="fill:#f6f7f7; stroke:none;" d="M353 259L354 260L353 259z"/>
<path style="fill:#a6d8e4; stroke:none;" d="M361 259L362 260L361 259M368.333 259.667L368.667 260.333L368.333 259.667z"/>
<path style="fill:#d2eaee; stroke:none;" d="M410 259L411 260L410 259z"/>
<path style="fill:#a6d8e4; stroke:none;" d="M417.333 259.667L417.667 260.333L417.333 259.667M116 260L117 261L116 260M124 260L125 261L124 260M237 260L238 261L237 260z"/>
<path style="fill:#f6f7f7; stroke:none;" d="M245 260L246 261L245 260M250 260L251 261L250 260M280 260L282 262L280 260z"/>
<path style="fill:#d2eaee; stroke:none;" d="M281 260L282 261L281 260z"/>
<path style="fill:#f6f7f7; stroke:none;" d="M297 260L298 261L297 260z"/>
<path style="fill:#a6d8e4; stroke:none;" d="M305 260L306 261L305 260M353.333 260.667L353.667 261.333L353.333 260.667z"/>
<path style="fill:#d2eaee; stroke:none;" d="M361 260L362 261L361 260z"/>
<path style="fill:#a6d8e4; stroke:none;" d="M410 260L411 261L410 260M82.3333 261.667L82.6667 262.333L82.3333 261.667M89 261L90 262L89 261z"/>
<path style="fill:#f6f7f7; stroke:none;" d="M116 261L117 262L116 261M125 261L126 262L125 261z"/>
<path style="fill:#d2eaee; stroke:none;" d="M237 261L238 262L237 261z"/>
<path style="fill:#a6d8e4; stroke:none;" d="M245.333 261.667L245.667 262.333L245.333 261.667M280 261L280 264L281 264L280 261M298 261L299 262L298 261z"/>
<path style="fill:#f6f7f7; stroke:none;" d="M306 261L307 262L306 261M316 261L316 267L317 267L316 261z"/>
<path style="fill:#d2eaee; stroke:none;" d="M346.333 261.667L346.667 262.333L346.333 261.667z"/>
<path style="fill:#f6f7f7; stroke:none;" d="M369 261L370 262L369 261M409.333 261.667L409.667 262.333L409.333 261.667M417 261L418 262L417 261M89 262L90 263L89 262z"/>
<path style="fill:#a6d8e4; stroke:none;" d="M117 262L118 263L117 262M125 262L126 263L125 262M147 262L147 266L148 266L147 262z"/>
<path style="fill:#f6f7f7; stroke:none;" d="M237 262L238 263L237 262M248 262L250 264L248 262z"/>
<path style="fill:#d2eaee; stroke:none;" d="M298 262L299 263L298 262M306 262L307 263L306 262z"/>
<path style="fill:#f6f7f7; stroke:none;" d="M354.333 262.667L354.667 263.333L354.333 262.667z"/>
<path style="fill:#a6d8e4; stroke:none;" d="M362 262L363 263L362 262z"/>
<path style="fill:#d2eaee; stroke:none;" d="M369 262L370 263L369 262z"/>
<path style="fill:#a6d8e4; stroke:none;" d="M416 262L417 263L416 262z"/>
<path style="fill:#f6f7f7; stroke:none;" d="M81 263L82 264L81 263z"/>
<path style="fill:#a6d8e4; stroke:none;" d="M88 263L89 264L88 263z"/>
<path style="fill:#f6f7f7; stroke:none;" d="M117 263L118 264L117 263M126 263L127 264L126 263z"/>
<path style="fill:#a6d8e4; stroke:none;" d="M140 263L140 266L141 266L140 263M238 263L239 264L238 263z"/>
<path style="fill:#f6f7f7; stroke:none;" d="M246 263L247 264L246 263z"/>
<path style="fill:#d2eaee; stroke:none;" d="M248 263L249 264L248 263z"/>
<path style="fill:#f6f7f7; stroke:none;" d="M279 263L281 265L279 263M298 263L299 264L298 263z"/>
<path style="fill:#a6d8e4; stroke:none;" d="M306 263L307 264L306 263z"/>
<path style="fill:#f6f7f7; stroke:none;" d="M346 263L346 275L347 275L346 263M362 263L363 264L362 263z"/>
<path style="fill:#a6d8e4; stroke:none;" d="M369 263L370 264L369 263M409 263L410 264L409 263z"/>
<path style="fill:#f6f7f7; stroke:none;" d="M416 263L417 264L416 263z"/>
<path style="fill:#a6d8e4; stroke:none;" d="M81 264L82 265L81 264z"/>
<path style="fill:#f6f7f7; stroke:none;" d="M88 264L89 265L88 264z"/>
<path style="fill:#a6d8e4; stroke:none;" d="M118 264L119 265L118 264M126 264L127 265L126 264z"/>
<path style="fill:#d2eaee; stroke:none;" d="M238 264L239 265L238 264M246 264L247 265L246 264z"/>
<path style="fill:#a6d8e4; stroke:none;" d="M248.333 264.667L248.667 265.333L248.333 264.667z"/>
<path style="fill:#d2eaee; stroke:none;" d="M279 264L280 265L279 264z"/>
<path style="fill:#a6d8e4; stroke:none;" d="M299.333 264.667L299.667 265.333L299.333 264.667z"/>
<path style="fill:#d2eaee; stroke:none;" d="M354 264L352 280L352 281C356.491 278.088 355.919 268.574 354 264z"/>
<path style="fill:#a6d8e4; stroke:none;" d="M363 264L364 265L363 264z"/>
<path style="fill:#f6f7f7; stroke:none;" d="M370 264L371 265L370 264M408 264L409 265L408 264z"/>
<path style="fill:#a6d8e4; stroke:none;" d="M415 264L416 265L415 264z"/>
<path style="fill:#f6f7f7; stroke:none;" d="M80 265L81 266L80 265z"/>
<path style="fill:#a6d8e4; stroke:none;" d="M87 265L88 266L87 265z"/>
<path style="fill:#f6f7f7; stroke:none;" d="M118 265L119 266L118 265M127 265L128 266L127 265M238 265L239 266L238 265z"/>
<path style="fill:#a6d8e4; stroke:none;" d="M246 265L247 266L246 265M279.333 265.667L279.667 266.333L279.333 265.667z"/>
<path style="fill:#d2eaee; stroke:none;" d="M307 265L308 266L307 265z"/>
<path style="fill:#a6d8e4; stroke:none;" d="M370 265L371 266L370 265M408 265L409 266L408 265z"/>
<path style="fill:#f6f7f7; stroke:none;" d="M415 265L416 266L415 265z"/>
<path style="fill:#d2eaee; stroke:none;" d="M80 266L81 267L80 266z"/>
<path style="fill:#a6d8e4; stroke:none;" d="M119 266L120 267L119 266M127 266L128 267L127 266z"/>
<path style="fill:#d2eaee; stroke:none;" d="M140 266L141 267L140 266M175.667 266.333L176.333 266.667L175.667 266.333z"/>
<path style="fill:#a6d8e4; stroke:none;" d="M239 266L240 267L239 266z"/>
<path style="fill:#d2eaee; stroke:none;" d="M247.667 266.333L248.333 266.667L247.667 266.333z"/>
<path style="fill:#f6f7f7; stroke:none;" d="M299 266L300 267L299 266z"/>
<path style="fill:#a6d8e4; stroke:none;" d="M307 266L308 267L307 266z"/>
<path style="fill:#d2eaee; stroke:none;" d="M364 266L365 267L364 266z"/>
<path style="fill:#f6f7f7; stroke:none;" d="M371 266L372 267L371 266M407 266L408 267L407 266z"/>
<path style="fill:#a6d8e4; stroke:none;" d="M414 266L415 267L414 266z"/>
<path style="fill:#f6f7f7; stroke:none;" d="M79 267L80 268L79 267z"/>
<path style="fill:#d2eaee; stroke:none;" d="M86 267L87 268L86 267z"/>
<path style="fill:#f6f7f7; stroke:none;" d="M119 267L120 268L119 267M128 267L129 268L128 267M140 267L141 268L140 267M148 267L149 268L148 267z"/>
<path style="fill:#a6d8e4; stroke:none;" d="M175.333 267.667L175.667 268.333L175.333 267.667z"/>
<path style="fill:#f6f7f7; stroke:none;" d="M176 267L177 268L176 267z"/>
<path style="fill:#d2eaee; stroke:none;" d="M239 267L240 268L239 267z"/>
<path style="fill:#a6d8e4; stroke:none;" d="M247.333 267.667L247.667 268.333L247.333 267.667z"/>
<path style="fill:#d2eaee; stroke:none;" d="M278.667 267.333L279.333 267.667L278.667 267.333z"/>
<path style="fill:#f6f7f7; stroke:none;" d="M308.333 267.667L308.667 268.333L308.333 267.667z"/>
<path style="fill:#a6d8e4; stroke:none;" d="M365 267L366 268L365 267M371 267L372 268L371 267z"/>
<path style="fill:#d2eaee; stroke:none;" d="M407 267L408 268L407 267z"/>
<path style="fill:#f6f7f7; stroke:none;" d="M414 267L415 268L414 267z"/>
<path style="fill:#a6d8e4; stroke:none;" d="M79 268L80 269L79 268M85 268L86 269L85 268M120 268L121 269L120 268M128 268L129 269L128 268M141 268L142 269L141 268z"/>
<path style="fill:#d2eaee; stroke:none;" d="M148 268L149 269L148 268z"/>
<path style="fill:#f6f7f7; stroke:none;" d="M239 268L240 269L239 268z"/>
<path style="fill:#a6d8e4; stroke:none;" d="M278.333 268.667L278.667 269.333L278.333 268.667M300 268L301 269L300 268z"/>
<path style="fill:#f6f7f7; stroke:none;" d="M365 268L366 269L365 268M372 268L373 269L372 268M406 268L407 269L406 268M413 268L414 269L413 268z"/>
<path style="fill:#d2eaee; stroke:none;" d="M78 269L79 270L78 269z"/>
<path style="fill:#a6d8e4; stroke:none;" d="M84 269L85 270L84 269z"/>
<path style="fill:#f6f7f7; stroke:none;" d="M120 269L121 270L120 269M129 269L130 270L129 269M131.333 269.667L131.667 270.333L131.333 269.667z"/>
<path style="fill:#d2eaee; stroke:none;" d="M141 269L142 270L141 269z"/>
<path style="fill:#a6d8e4; stroke:none;" d="M148 269L149 270L148 269z"/>
<path style="fill:#d2eaee; stroke:none;" d="M174.667 269.333L175.333 269.667L174.667 269.333z"/>
<path style="fill:#a6d8e4; stroke:none;" d="M240.333 269.667L240.667 270.333L240.333 269.667z"/>
<path style="fill:#d2eaee; stroke:none;" d="M247 269L248 270L247 269z"/>
<path style="fill:#f6f7f7; stroke:none;" d="M300 269L301 270L300 269z"/>
<path style="fill:#a6d8e4; stroke:none;" d="M308 269L309 270L308 269z"/>
<path style="fill:#f6f7f7; stroke:none;" d="M366 269L367 270L366 269z"/>
<path style="fill:#a6d8e4; stroke:none;" d="M372 269L373 270L372 269M406 269L407 270L406 269z"/>
<path style="fill:#d2eaee; stroke:none;" d="M412 269L413 270L412 269z"/>
<path style="fill:#f6f7f7; stroke:none;" d="M77 270L78 271L77 270M84 270L85 271L84 270z"/>
<path style="fill:#a6d8e4; stroke:none;" d="M121 270L122 271L121 270M129 270L130 271L129 270M142 270L143 271L142 270M174 270L175 271L174 270z"/>
<path style="fill:#f6f7f7; stroke:none;" d="M247 270L248 271L247 270z"/>
<path style="fill:#d2eaee; stroke:none;" d="M277.667 270.333L278.333 270.667L277.667 270.333M367 270L368 271L367 270M373 270L374 271L373 270M405 270L406 271L405 270M411 270L412 271L411 270z"/>
<path style="fill:#a6d8e4; stroke:none;" d="M77 271L78 272L77 271z"/>
<path style="fill:#f6f7f7; stroke:none;" d="M83 271L84 272L83 271M121 271L122 272L121 271M130 271L131 272L130 271M142 271L143 272L142 271M149 271L150 272L149 271z"/>
<path style="fill:#d2eaee; stroke:none;" d="M173.667 271.333L174.333 271.667L173.667 271.333z"/>
<path style="fill:#f6f7f7; stroke:none;" d="M240 271L241 272L240 271z"/>
<path style="fill:#a6d8e4; stroke:none;" d="M246 271L247 272L246 271M277.333 271.667L277.667 272.333L277.333 271.667z"/>
<path style="fill:#f6f7f7; stroke:none;" d="M278 271L279 272L278 271z"/>
<path style="fill:#a6d8e4; stroke:none;" d="M301 271L302 272L301 271z"/>
<path style="fill:#f6f7f7; stroke:none;" d="M309 271L310 272L309 271z"/>
<path style="fill:#d2eaee; stroke:none;" d="M368 271L369 272L368 271z"/>
<path style="fill:#f6f7f7; stroke:none;" d="M374 271L375 272L374 271M404 271L405 272L404 271z"/>
<path style="fill:#a6d8e4; stroke:none;" d="M410 271L411 272L410 271M76 272L77 273L76 272M81 272L80 274L81 272z"/>
<path style="fill:#f6f7f7; stroke:none;" d="M82 272L83 273L82 272z"/>
<path style="fill:#a6d8e4; stroke:none;" d="M122 272L123 273L122 272M130 272L131 273L130 272M143 272L144 273L143 272M149 272L150 273L149 272z"/>
<path style="fill:#f6f7f7; stroke:none;" d="M172 272L169 276L170 277L172 272z"/>
<path style="fill:#a6d8e4; stroke:none;" d="M173 272L174 273L173 272z"/>
<path style="fill:#d2eaee; stroke:none;" d="M246 272L247 273L246 272M301 272L302 273L301 272z"/>
<path style="fill:#a6d8e4; stroke:none;" d="M309.333 272.667L309.667 273.333L309.333 272.667z"/>
<path style="fill:#f6f7f7; stroke:none;" d="M316 272L316 279L317 279L316 272z"/>
<path style="fill:#d2eaee; stroke:none;" d="M369 272L370 273L369 272z"/>
<path style="fill:#f6f7f7; stroke:none;" d="M375 272L376 273L375 272M403 272L401 275L403 272z"/>
<path style="fill:#a6d8e4; stroke:none;" d="M409 272L410 273L409 272z"/>
<path style="fill:#d2eaee; stroke:none;" d="M75 273L76 274L75 273z"/>
<path style="fill:#f6f7f7; stroke:none;" d="M81 273L82 274L81 273M122 273L123 274L122 273M131 273L132 274L131 273z"/>
<path style="fill:#a6d8e4; stroke:none;" d="M144 273L145 274L144 273z"/>
<path style="fill:#f6f7f7; stroke:none;" d="M150 273L151 274L150 273z"/>
<path style="fill:#a6d8e4; stroke:none;" d="M172 273L173 274L172 273M241 273L242 274L241 273z"/>
<path style="fill:#f6f7f7; stroke:none;" d="M246 273L247 274L246 273M276 273L278 275L276 273z"/>
<path style="fill:#d2eaee; stroke:none;" d="M277 273L278 274L277 273z"/>
<path style="fill:#f6f7f7; stroke:none;" d="M301 273L302 274L301 273z"/>
<path style="fill:#d2eaee; stroke:none;" d="M370 273L371 274L370 273z"/>
<path style="fill:#f6f7f7; stroke:none;" d="M376 273L377 274L376 273z"/>
<path style="fill:#a6d8e4; stroke:none;" d="M403 273L404 274L403 273z"/>
<path style="fill:#d2eaee; stroke:none;" d="M408 273L409 274L408 273M74 274L75 275L74 274z"/>
<path style="fill:#a6d8e4; stroke:none;" d="M79 274L80 275L79 274M123 274L124 275L123 274M131 274L132 275L131 274z"/>
<path style="fill:#f6f7f7; stroke:none;" d="M144 274L145 275L144 274z"/>
<path style="fill:#a6d8e4; stroke:none;" d="M150 274L151 275L150 274M171 274L170 276L171 274z"/>
<path style="fill:#d2eaee; stroke:none;" d="M241 274L242 275L241 274z"/>
<path style="fill:#a6d8e4; stroke:none;" d="M245.333 274.667L245.667 275.333L245.333 274.667M276 274L276 277L277 277L276 274M302 274L303 275L302 274z"/>
<path style="fill:#f6f7f7; stroke:none;" d="M310 274L311 275L310 274M371 274L372 275L371 274M377 274L378 275L377 274z"/>
<path style="fill:#a6d8e4; stroke:none;" d="M402 274L403 275L402 274z"/>
<path style="fill:#f6f7f7; stroke:none;" d="M407 274L408 275L407 274M40.3333 275.667L40.6667 276.333L40.3333 275.667M72 275L73 276L72 275z"/>
<path style="fill:#a6d8e4; stroke:none;" d="M73 275L74 276L73 275z"/>
<path style="fill:#d2eaee; stroke:none;" d="M78 275L79 276L78 275z"/>
<path style="fill:#f6f7f7; stroke:none;" d="M123 275L124 276L123 275M132 275L133 276L132 275M145 275L147 277L145 275z"/>
<path style="fill:#a6d8e4; stroke:none;" d="M146 275L147 276L146 275z"/>
<path style="fill:#d2eaee; stroke:none;" d="M151 275L152 276L151 275M302 275L303 276L302 275M310 275L311 276L310 275z"/>
<path style="fill:#f6f7f7; stroke:none;" d="M372 275L373 276L372 275z"/>
<path style="fill:#a6d8e4; stroke:none;" d="M373 275L374 276L373 275z"/>
<path style="fill:#d2eaee; stroke:none;" d="M378 275L379 276L378 275z"/>
<path style="fill:#f6f7f7; stroke:none;" d="M400 275L401 276L400 275z"/>
<path style="fill:#a6d8e4; stroke:none;" d="M405 275L406 276L405 275z"/>
<path style="fill:#f6f7f7; stroke:none;" d="M406 275L407 276L406 275M71 276L72 277L71 276z"/>
<path style="fill:#d2eaee; stroke:none;" d="M76 276L77 277L76 276z"/>
<path style="fill:#f6f7f7; stroke:none;" d="M77 276L78 277L77 276z"/>
<path style="fill:#a6d8e4; stroke:none;" d="M124 276L125 277L124 276M132 276L133 277L132 276M147 276L148 277L147 276z"/>
<path style="fill:#f6f7f7; stroke:none;" d="M152 276L153 277L152 276z"/>
<path style="fill:#d2eaee; stroke:none;" d="M168.333 276.667L168.667 277.333L168.333 276.667z"/>
<path style="fill:#a6d8e4; stroke:none;" d="M169 276L170 277L169 276M242 276L243 277L242 276z"/>
<path style="fill:#f6f7f7; stroke:none;" d="M245 276L246 277L245 276M275 276L276 279L277 279L275 276M302 276L303 277L302 276z"/>
<path style="fill:#a6d8e4; stroke:none;" d="M310 276L311 277L310 276M347 276L348 277L347 276z"/>
<path style="fill:#f6f7f7; stroke:none;" d="M374 276L375 277L374 276z"/>
<path style="fill:#a6d8e4; stroke:none;" d="M375 276L376 277L375 276M379 276L380 277L379 276z"/>
<path style="fill:#f6f7f7; stroke:none;" d="M380 276L381 277L380 276z"/>
<path style="fill:#d2eaee; stroke:none;" d="M399 276L400 277L399 276z"/>
<path style="fill:#a6d8e4; stroke:none;" d="M403 276L404 277L403 276z"/>
<path style="fill:#f6f7f7; stroke:none;" d="M404 276L405 277L404 276z"/>
<path style="fill:#a6d8e4; stroke:none;" d="M431 276L432 277L431 276z"/>
<path style="fill:#f6f7f7; stroke:none;" d="M69 277L70 278L69 277z"/>
<path style="fill:#a6d8e4; stroke:none;" d="M70 277L71 278L70 277M74 277L75 278L74 277z"/>
<path style="fill:#f6f7f7; stroke:none;" d="M75 277L76 278L75 277M124 277L125 278L124 277z"/>
<path style="fill:#d2eaee; stroke:none;" d="M148 277L149 278L148 277M153 277L154 278L153 277z"/>
<path style="fill:#f6f7f7; stroke:none;" d="M166 277L168 279L166 277z"/>
<path style="fill:#a6d8e4; stroke:none;" d="M167 277L168 278L167 277z"/>
<path style="fill:#d2eaee; stroke:none;" d="M242 277L243 278L242 277M275 277L276 278L275 277z"/>
<path style="fill:#a6d8e4; stroke:none;" d="M303 277L304 278L303 277z"/>
<path style="fill:#f6f7f7; stroke:none;" d="M311 277L312 278L311 277M347 277L348 278L347 277M376 277L377 278L376 277z"/>
<path style="fill:#a6d8e4; stroke:none;" d="M377 277L378 278L377 277z"/>
<path style="fill:#d2eaee; stroke:none;" d="M381 277L382 278L381 277z"/>
<path style="fill:#f6f7f7; stroke:none;" d="M397 277L398 278L397 277z"/>
<path style="fill:#a6d8e4; stroke:none;" d="M398 277L399 278L398 277M401 277L402 278L401 277z"/>
<path style="fill:#d2eaee; stroke:none;" d="M402 277L403 278L402 277M431 277L432 278L431 277z"/>
<path style="fill:#f6f7f7; stroke:none;" d="M40 278L41 279L40 278M67 278L68 279L67 278z"/>
<path style="fill:#a6d8e4; stroke:none;" d="M68 278L64 279L64 280L68 278M71 278L72 279L71 278z"/>
<path style="fill:#d2eaee; stroke:none;" d="M72 278L73 279L72 278z"/>
<path style="fill:#f6f7f7; stroke:none;" d="M73 278L74 279L73 278z"/>
<path style="fill:#a6d8e4; stroke:none;" d="M125 278L126 279L125 278M133 278L134 279L133 278z"/>
<path style="fill:#f6f7f7; stroke:none;" d="M149 278L150 279L149 278z"/>
<path style="fill:#d2eaee; stroke:none;" d="M150 278L151 279L150 278z"/>
<path style="fill:#a6d8e4; stroke:none;" d="M154 278L155 279L154 278z"/>
<path style="fill:#f6f7f7; stroke:none;" d="M155 278L156 279L155 278z"/>
<path style="fill:#d2eaee; stroke:none;" d="M164.333 278.667L164.667 279.333L164.333 278.667z"/>
<path style="fill:#a6d8e4; stroke:none;" d="M165 278L166 279L165 278z"/>
<path style="fill:#d2eaee; stroke:none;" d="M166 278L167 279L166 278z"/>
<path style="fill:#f6f7f7; stroke:none;" d="M242 278L243 279L242 278z"/>
<path style="fill:#a6d8e4; stroke:none;" d="M244 278L243 280L244 278M275.333 278.667L275.667 279.333L275.333 278.667z"/>
<path style="fill:#d2eaee; stroke:none;" d="M303 278L304 279L303 278M311 278L312 279L311 278M348 278L349 279L348 278z"/>
<path style="fill:#f6f7f7; stroke:none;" d="M378 278L379 279L378 278z"/>
<path style="fill:#a6d8e4; stroke:none;" d="M379 278L380 279L379 278M382 278L382 280L384 280L382 278z"/>
<path style="fill:#d2eaee; stroke:none;" d="M383 278L384 279L383 278z"/>
<path style="fill:#f6f7f7; stroke:none;" d="M384 278L385 279L384 278M394 278L395 279L394 278z"/>
<path style="fill:#d2eaee; stroke:none;" d="M395 278L396 279L395 278z"/>
<path style="fill:#a6d8e4; stroke:none;" d="M396 278L392 279L392 280L396 278M399 278L400 279L399 278z"/>
<path style="fill:#f6f7f7; stroke:none;" d="M400.667 278.333L401.333 278.667L400.667 278.333z"/>
<path style="fill:#d2eaee; stroke:none;" d="M430 278L425 280L425 281L462 281L430 278z"/>
<path style="fill:#f6f7f7; stroke:none;" d="M433 278L433 279L437 279L433 278z"/>
<path style="fill:#d2eaee; stroke:none;" d="M33 280L33 281L64 281L64 279L33 280M69 279L70 280L69 279z"/>
<path style="fill:#f6f7f7; stroke:none;" d="M70 279L71 280L70 279M125 279L126 280L125 279z"/>
<path style="fill:#d2eaee; stroke:none;" d="M152 279L153 280L152 279z"/>
<path style="fill:#a6d8e4; stroke:none;" d="M153 279L154 280L153 279M156 279L157 280L156 279z"/>
<path style="fill:#d2eaee; stroke:none;" d="M157 279L157 281L160 281L160 279L157 279z"/>
<path style="fill:#a6d8e4; stroke:none;" d="M160 279L160 280L164 280L160 279z"/>
<path style="fill:#d2eaee; stroke:none;" d="M183 280L183 281L219 281L219 279L183 280z"/>
<path style="fill:#f6f7f7; stroke:none;" d="M219.333 279.667L219.667 280.333L219.333 279.667z"/>
<path style="fill:#d2eaee; stroke:none;" d="M244 279L245 280L244 279z"/>
<path style="fill:#f6f7f7; stroke:none;" d="M303 279L304 280L303 279z"/>
<path style="fill:#a6d8e4; stroke:none;" d="M311 279L312 280L311 279z"/>
<path style="fill:#d2eaee; stroke:none;" d="M349 279L350 280L349 279z"/>
<path style="fill:#a6d8e4; stroke:none;" d="M350 279L351 280L350 279z"/>
<path style="fill:#f6f7f7; stroke:none;" d="M381 279L382 280L381 279z"/>
<path style="fill:#55b8d1; stroke:none;" d="M384 279L385 280L384 279z"/>
<path style="fill:#a6d8e4; stroke:none;" d="M385.667 279.333L386.333 279.667L385.667 279.333z"/>
<path style="fill:#d2eaee; stroke:none;" d="M387 279L387 281L392 281L392 279L387 279M397 279L398 280L397 279z"/>
<path style="fill:#f6f7f7; stroke:none;" d="M398 279L399 280L398 279z"/>
<path style="fill:#a6d8e4; stroke:none;" d="M429 279L430 280L429 279z"/>
<path style="fill:#f6f7f7; stroke:none;" d="M461 279L462 280L461 279M32 280L33 281L32 280M64 280L64 281L68 281L64 280M97 280L98 281L97 280M134 280L135 281L134 280M154 280L154 281L157 281L154 280M160 280L161 281L160 280M182 280L183 281L182 280M243 280L244 281L243 280M261 280L262 281L261 280M275 280L276 281L275 280z"/>
<path style="fill:#d2eaee; stroke:none;" d="M304 280L304 281L312 281L304 280M317 280L317 281L324 281L317 280z"/>
<path style="fill:#f6f7f7; stroke:none;" d="M324 280L325 281L324 280M351 280L352 281L351 280M354 280L355 281L354 280M384 280L384 281L387 281L384 280M392 280L392 281L395 281L392 280M435 281L435 282L440 282L435 281z"/>
</svg>
