<svg class="Nav_logo__HbdZ_" xmlns="http://www.w3.org/2000/svg" aria-describedby="logo-desc" aria-labelledby="logo-title" viewBox="0 0 526.6 104.3" aria-hidden="false" role="img"><title id="logo-title">The Muse Logo</title><desc id="logo-desc"> A logo with "the" in white text and "muse" in light blue text.</desc><path class="MuseLogoDuoWhite_firstColor__qjJG8" d="M9.5 43.5H1c-.6 0-1-.4-1-1V29.9c0-.6.4-1 1-1h8c.6 0 1-.4 1-1V9.8c0-.6.4-1 1-1h15.9c.6 0 1 .4 1 1v19.1h10.7c.6 0 1 .4 1 1v12.6c0 .6-.4 1-1 1h-9.7c-.6 0-1 .4-1 1v28.7c0 12.1 9.5 13.9 14.6 13.9.9 0 1.7-.1 2.2-.1.6-.1 1.1.4 1.1 1v14c0 .5-.4.9-.9 1-1 .1-2.7.3-4.8.3-10.3 0-30.6-3-30.6-27.7zm154.4-16.4c21.1 0 32.6 15.5 32.6 34.9 0 2.2-.4 6.8-.4 6.8h-50.8c1.4 13 11 19.8 22.1 19.8 9.6 0 17.3-5.4 19.8-7.5.5-.4 1.2-.3 1.5.3l6.6 11c.2.4.2.9-.2 1.3-2.6 2.3-13.1 10.6-29 10.6-24.4 0-39.6-17.6-39.6-38.6 0-22.7 15.3-38.6 37.4-38.6zm13.8 29.1c-.3-8.8-6.4-14.9-13.9-14.9-9.4 0-16 5.6-18 14.9zM51.2 1c0-.6.4-1 1-1h7.6c6.8 0 9.8 3 9.8 9.7v25.8c0 3.6-.3 6.2-.3 6.2h.3c3.5-7.1 12.6-14.6 25.3-14.6 16.5 0 25.7 8.5 25.7 28v47.3H112c-6.8 0-9.7-2.9-9.7-9.8V58.9c0-9-2.5-15-11.7-15-9.7 0-17.2 6.4-19.9 15.3-.9 2.9-1.2 6.1-1.2 9.5v32.8c0 .6-.4 1-1 1H52.2c-.6 0-1-.4-1-1z" fill="#f7f7f7"></path><path class="MuseLogoDuoWhite_secondColor__Svg3T" d="M441 44.6v-.8c0-5.3-7.9-7.4-12.6-7.4-10.2 0-16.2 3.5-16.2 10.6 0 16.4 40.9 12.6 40.9 36.9 0 12.2-11 20.4-25.6 20.4-16.4 0-25.4-9.5-27.5-12.1-.3-.4-.3-.9 0-1.3l4.3-5.2c.4-.5 1.1-.5 1.5 0 2.3 2.6 9.9 10.1 21.8 10.1 8.2 0 15.4-3.9 15.4-11.6 0-16-40.9-13.1-40.9-36.6 0-13.2 11.3-19.7 26-19.7 7.4 0 22.2 2.9 22.2 13.2v1.8c0 .5-.4.9-.9 1zm55-16.8c20.1 0 30.6 15.5 30.6 33.6 0 1.7-.3 4.9-.3 4.9h-56c.3 18.4 13.2 29 28.3 29 10.9 0 18.6-6 21.1-8.2.5-.4 1.2-.3 1.5.2l3.7 5.7c.3.4.2 1-.2 1.3-2.5 2.2-12.3 9.9-26.5 9.9-21.6 0-38.2-15.7-38.2-38.2 0-23.8 16.4-38.2 36-38.2zm20.4 30.8c-.6-15.1-9.9-22.5-20.6-22.5-12.1 0-22.7 7.9-25.1 22.5zM327.2 41.3V30.5c0-.6.4-1 1-1h.7c6.2 0 8.3 2.6 8.3 8.6v35.2c0 11.5 1.9 21.7 16 21.7 16.5 0 26.9-14.7 26.9-30.5V30.6c0-.6.4-1 1-1h7.9c.6 0 1 .4 1 1v71.9h-.8c-6.1 0-8.9-2.6-8.9-8.2V87h-.3c-2.9 7.1-12.2 17.2-28.1 17.2-17.3 0-24.5-9.3-24.5-28.3V41.3zM210.6 30c6.1 0 5.9 2.6 5.9 8.2v3.3c0 2.9-.3 5.2-.3 5.2h.2c3.6-9.9 15.1-18.4 26.4-18.4h.1c13.5 0 20.5 6.2 22.7 18.3h.2c3.9-9.9 14.5-18.3 26.9-18.3h.1c17.7 0 24.3 10.3 24.3 28.3v45.5c0 .6-.4 1-1 1H313c-5.521 0-5.888-2.062-5.902-6.962A17.846 17.846 0 01307 94.2V59.1c0-11.884-2.493-21.673-15.745-21.7-10.98.027-20.059 9.915-23.055 20.6-1 3.2-1.3 6.6-1.3 10.6v33.6c0 .178-.035.338-.1.475v.425h-.425c-.137.065-.297.1-.475.1H258c-.178 0-.338-.035-.475-.1h-.625v-44c0-6.999-.648-13.877-4.674-17.954-2.3-2.271-5.679-3.646-10.626-3.646-11.9 0-20.7 10.3-23.8 21.4-.9 3-1.2 6.3-1.2 9.7V102c0 .178-.035.338-.1.475V103h-9.9V62.126l-.051-20.336.003-.655c-.242-1.598-1.385-2.535-3.152-2.535h-6.1V30z" fill="#53b6d0"></path></svg>